<svg width="1488" height="785" viewBox="0 0 1488 785" fill="none" xmlns="http://www.w3.org/2000/svg">
<path d="M1218.24 710.759C1210.34 709.13 1201.82 703.733 1200.48 699.51C1199.3 695.77 1201.94 690.163 1205.71 688.448C1208.4 687.22 1210.93 687.49 1218.92 689.861C1229.55 693.018 1234.11 692.7 1237.88 688.539C1241.12 684.952 1239.74 684.326 1232.72 686.203C1215.47 690.818 1199.15 674.081 1199.37 651.982C1199.47 641.242 1201.61 635.209 1207.8 628.158C1216.3 618.482 1226.35 615.864 1238.76 620.093C1244.4 622.014 1245.18 622.005 1248.27 619.982C1252.35 617.308 1256.06 618.26 1259.73 622.925C1262.26 626.142 1262.43 628.251 1262.43 656.13C1262.43 682.989 1262.16 686.623 1259.66 693.291C1254.22 707.846 1237.76 714.785 1218.24 710.759ZM1235.71 666.028C1238.52 664.523 1241.09 658.013 1241.09 652.402C1241.09 640.425 1229.33 634.503 1223.75 643.667C1219.66 650.364 1220.18 658.628 1224.99 663.436C1229.1 667.545 1231.7 668.174 1235.71 666.028ZM377.879 707.231C374.865 703.649 374.428 701.916 374.437 693.564C374.447 688.304 374.246 671.238 374.001 655.639C373.603 630.221 373.805 626.869 375.951 623.341C379.054 618.237 384.224 616.925 389.671 619.858C393.481 621.911 394.274 621.928 398.76 620.053C423.37 609.771 447.376 641.922 435.278 668.962C429.295 682.337 419.014 689.427 407.194 688.33C403.472 687.985 399.527 687.47 398.427 687.185C396.826 686.77 396.294 688.617 395.76 696.454C395.2 704.677 394.591 706.647 391.946 708.787C387.187 712.637 381.939 712.056 377.879 707.231ZM412.971 664.131C416.98 659.863 418.017 651.652 415.226 646.257C411.14 638.355 404.476 637.181 399.212 643.436C393.763 649.911 395.036 661.697 401.683 666.313C404.56 668.311 410.039 667.252 412.971 664.131ZM263.76 687.447C249.328 684.447 241.646 672.29 249.513 664.899C253.132 661.499 256.317 661.264 261.579 664.008C266.821 666.742 271.395 666.508 273.047 663.421C273.875 661.874 274.427 649.437 274.427 632.339C274.427 605.498 274.586 603.666 277.146 600.918C281.4 596.351 288.104 596.584 293.094 601.471L296.427 604.736L296.409 635.035C296.399 651.699 295.942 667.477 295.393 670.097C294.337 675.137 288.205 682.358 282.508 685.272C277.874 687.642 269.419 688.623 263.76 687.447ZM466.29 687.37C463.648 686.883 458.734 684.871 455.369 682.899C450.479 680.033 448.397 677.579 444.996 670.671C441.086 662.729 440.793 661.227 441.375 652.158C442.369 636.659 448.407 626.839 460.427 621.17C468.648 617.293 474.552 617.178 481.929 620.749C487.257 623.328 487.81 623.363 490.939 621.312C495.703 618.191 499.864 619.299 503.458 624.644C506.503 629.173 506.57 629.92 506.17 654.873C505.77 679.849 505.683 680.541 502.528 683.896C498.749 687.915 495.649 688.206 490.299 685.046C486.745 682.946 486.126 682.931 482.76 684.862C477.987 687.599 472.263 688.471 466.29 687.37ZM479.726 664.701C484.69 659.737 484.981 648.366 480.277 643.169C477.496 640.095 470.088 639.864 467.191 642.76C462.214 647.737 462.905 659.51 468.457 664.334C472.711 668.031 476.28 668.147 479.726 664.701ZM601.987 686.503C593.597 683.925 584.918 675.328 581.969 666.673C574.63 645.136 586.389 621.116 605.558 618.488C625.325 615.779 640.518 627.512 643.251 647.598C644.034 653.346 643.768 654.198 640.029 657.937C636.231 661.735 636.123 662.101 638.434 663.338C639.798 664.067 641.294 665.865 641.76 667.332C642.891 670.896 644.272 670.695 646.436 666.651C647.523 664.62 650.251 662.695 653.363 661.762L658.497 660.224L654.044 656.554C651.52 654.473 648.799 650.482 647.761 647.337C642.681 631.943 656.441 616.597 673.725 618.381C686.672 619.717 694.345 625.578 694.397 634.171C694.437 640.654 692.08 642.27 683.19 641.859C679.125 641.67 675.466 641.851 675.058 642.258C674.65 642.666 676.841 644.01 679.928 645.245C691.585 649.909 695.641 655.107 695.713 665.47C695.772 673.999 692.004 680.023 683.709 684.657C671.25 691.617 650.667 687.486 645.706 677.03L643.439 672.253L641.444 675.541C634.972 686.207 617.145 691.16 601.987 686.503ZM625.094 664.305L631.094 661.334L617.922 660.95C610.677 660.739 604.377 660.941 603.922 661.398C603.466 661.856 604.51 663.378 606.241 664.782C610.426 668.175 617.646 667.992 625.094 664.305ZM670.102 664.334C669.801 663.417 667.801 662.504 665.658 662.304C661.94 661.957 661.88 662.034 664.349 663.97C667.477 666.424 670.858 666.638 670.102 664.334ZM621.094 643.541C621.094 641.125 615.528 637.556 611.76 637.556C607.632 637.556 601.962 641.503 603.204 643.512C604.125 645.003 621.094 645.03 621.094 643.541ZM725.76 687.467C713.344 685.385 702.929 675.85 699.849 663.743C699.067 660.668 698.427 653.863 698.427 648.619C698.427 639.628 698.711 638.724 703.427 632.699C716.334 616.211 735.874 613.186 750.211 625.457C757.057 631.317 760.978 638.627 762.027 647.484C762.729 653.411 762.434 654.514 759.259 657.828C755.707 661.535 755.707 661.538 758.4 663.975C762.803 667.96 761.962 674.295 756.377 679.198C748.27 686.316 737.02 689.354 725.76 687.467ZM741.067 665.189C744.015 664.009 746.427 662.509 746.427 661.855C746.427 660.446 743.022 660.367 731.992 661.52C723.9 662.365 722.712 663.783 728.23 666.009C732.495 667.73 735.138 667.561 741.067 665.189ZM738.427 642.933C738.427 638.01 730.664 636.382 725.255 640.171C722.826 641.872 722.546 642.589 723.958 643.484C726.927 645.365 738.427 644.927 738.427 642.933ZM880.427 687.458C863.35 684.402 851.724 667.686 853.449 648.666C855.814 622.584 884.286 609.05 904.78 624.267C910.227 628.311 915.673 638.868 916.675 647.325C917.354 653.058 917.045 654.17 913.905 657.31L910.372 660.843L913.066 664.268C917.221 669.55 916.499 673.71 910.424 679.489C903.371 686.198 891.304 689.404 880.427 687.458ZM896.382 665.086C898.973 663.851 901.094 662.351 901.094 661.753C901.094 660.32 882.269 660.385 879.995 661.827C878.569 662.731 878.652 663.368 880.424 665.14C883.25 667.966 890.393 667.942 896.382 665.086ZM891.042 643.835C893.026 643.074 893.018 642.793 890.944 640.502C889.699 639.126 887.407 638 885.85 638C882.33 638 876.78 641.748 877.816 643.425C878.682 644.825 887.732 645.106 891.042 643.835ZM941.145 687.102C934.652 685.239 927.01 678.803 922.838 671.685C919.806 666.511 919.274 664.035 919.21 654.811C919.111 640.575 922.806 631.871 932.046 624.567C941.527 617.072 950.413 616.154 960.694 621.605C964.707 623.734 965.109 623.733 967.465 621.6C970.754 618.624 976.475 618.714 979.551 621.791C982.416 624.655 983.358 635.275 983.196 662.884C983.099 679.55 982.931 680.608 979.861 683.884C976.206 687.785 969.856 688.493 965.71 685.462C963.478 683.829 962.515 683.914 958.175 686.128C952.757 688.893 948.278 689.149 941.145 687.102ZM956.759 665.285C960.754 662.487 963.038 653.671 961.163 648.292C958.977 642.023 955.887 639.333 950.867 639.333C947.244 639.333 945.883 640.162 943.746 643.667C940.596 648.832 940.346 655.353 943.094 660.667C946.48 667.215 951.555 668.93 956.759 665.285ZM320.067 684.587C312.666 680.827 305.836 672.745 303.743 665.272C301.404 656.918 302.626 641.39 306.166 634.485C312.126 622.86 326.513 615.825 337.425 619.202C343.773 621.167 348.032 621.374 353.402 619.978C358.734 618.593 363.089 620.133 364.865 624.031C365.887 626.274 366.427 636.39 366.427 653.294V679.129L362.875 683.35C359.827 686.973 358.739 687.444 355.208 686.674C350.244 685.59 345.848 685.588 334.427 686.664C327.133 687.351 324.859 687.022 320.067 684.587ZM341.042 664.415C344.381 660.831 344.746 650.439 341.736 644.62C339.429 640.159 334.33 638.342 329.849 640.384C325.496 642.367 323.185 652.039 325.431 658.87C328.074 666.908 336.073 669.749 341.042 664.415ZM517.501 684.117L513.76 680.9V653.561C513.76 626.462 513.788 626.191 516.993 622.777C520.489 619.052 526.07 618.255 530.273 620.88C532.215 622.093 533.945 621.949 538.282 620.214C551.176 615.054 565.624 619.51 571.284 630.391C572.735 633.179 573.289 640.159 573.491 658.174C573.758 682.003 573.73 682.259 570.613 684.784C566.582 688.048 559.608 688.05 555.575 684.784C552.594 682.373 552.392 681.214 551.76 662.982C551.316 650.153 550.523 643.041 549.383 641.673C546.358 638.04 542.384 637.919 538.947 641.356C535.9 644.403 535.76 645.335 535.76 662.664C535.76 680.126 535.641 680.904 532.488 684.058C528.25 688.296 522.39 688.318 517.501 684.114V684.117ZM809.714 686.313C808.956 685.774 807.006 683.602 805.381 681.487C802.497 677.732 802.427 676.775 802.427 641.228C802.427 604.841 802.427 604.813 805.588 601.141C809.673 596.391 817.079 596.061 821.457 600.434C824.315 603.29 824.452 604.57 825.094 634.367L825.76 665.333L838.206 666C848.513 666.552 850.975 667.111 852.539 669.255C855.546 673.377 854.897 680.318 851.154 684.061C847.994 687.221 847.252 687.333 829.488 687.313C819.371 687.302 810.473 686.852 809.714 686.313ZM993.753 683.082L990.175 678.83L991.055 653.415C991.54 639.437 992.548 626.402 993.296 624.448C995.329 619.138 1001.15 617.17 1006.68 619.925C1010.76 621.96 1011.42 621.958 1016 619.893C1024.55 616.038 1033.11 620.608 1033.07 629C1033.05 635.037 1032.06 636.143 1022.33 641.029C1014.4 645.013 1013.7 645.73 1012.84 650.667C1012.33 653.6 1011.88 661.577 1011.84 668.394C1011.77 679.722 1011.48 681.069 1008.49 684.061C1003.77 688.775 998.234 688.407 993.753 683.082ZM1039.23 684.026C1036.58 681.165 1036.05 678.794 1035.3 666.485C1033.38 635.143 1034.53 623.466 1039.81 620.639C1043.12 618.867 1049.55 618.991 1051.42 620.862C1052.57 622.012 1054.98 621.821 1061.15 620.092C1071.25 617.258 1079.53 618.779 1086.85 624.81C1093.38 630.195 1094.41 634.919 1094.42 659.487C1094.43 678.538 1094.19 680.606 1091.66 683.82C1088.09 688.369 1080.11 688.738 1076.3 684.53C1074.12 682.124 1073.67 678.948 1073.09 662.062C1072.39 641.202 1071.42 638 1065.85 638C1059.02 638 1058.14 640.226 1057.16 660.111C1056.65 670.317 1055.52 680.003 1054.63 681.636C1051.22 687.973 1043.94 689.102 1039.23 684.026ZM1105.63 684.508C1103.28 681.889 1103.12 679.671 1103.5 654.175C1103.93 625.015 1104.57 621.858 1110.53 619.969C1113.22 619.113 1113.16 618.944 1109.29 616.593C1103.34 612.972 1100.89 607.519 1102.54 601.551C1105 592.629 1114.83 589.694 1121.51 595.886C1128.18 602.069 1127.4 611.277 1119.82 615.755L1115.98 618.019L1119.72 621.751L1123.45 625.484L1124.43 651.511C1125.27 673.916 1125.11 678.104 1123.3 681.607C1120.92 686.199 1118.79 687.333 1112.52 687.333C1109.78 687.333 1107.24 686.29 1105.63 684.508ZM1136.37 684.286C1132.36 680.836 1132.14 678.451 1132.76 644.273C1133.08 626.738 1133.25 625.726 1136.37 622.606C1140.13 618.841 1145.75 618.342 1150.1 621.386C1152.76 623.25 1153.36 623.222 1156.64 621.074C1161.76 617.715 1174.82 617.85 1181.67 621.333C1192.7 626.939 1194.71 633.666 1193.53 661.086C1192.81 677.701 1192.27 681.354 1190.12 684.086C1186.67 688.471 1178.73 688.6 1174.79 684.333C1172.36 681.688 1171.96 679.204 1171.43 663.333C1171.1 653.433 1170.36 644.237 1169.78 642.898C1169.2 641.558 1167.2 639.882 1165.34 639.172C1162.54 638.108 1161.41 638.419 1158.92 640.94C1156.18 643.719 1155.82 645.717 1155 662.667C1154.21 678.865 1153.73 681.73 1151.36 684.333C1147.73 688.319 1141.03 688.298 1136.37 684.286ZM989.76 542.801C958.64 536.783 935.806 522.903 914.292 496.925C902.25 482.385 897.272 472.693 890.978 451.537C883.615 426.785 881.767 399.417 885.652 372.667C892.95 322.417 928.295 278.698 973.971 263.422C996.144 256.007 1025.4 255.413 1045.14 261.978C1054.9 265.225 1069.55 273.474 1076.68 279.737L1081.47 283.943L1083.62 280.65C1092.49 267.021 1103.56 260.667 1118.44 260.667C1135.07 260.667 1145.37 266.739 1152.11 280.501L1156.43 289.333L1156.8 398.185L1157.18 507.037L1153.74 516.185C1147.99 531.467 1137.1 539.822 1120.91 541.377C1105.65 542.841 1088.32 534.648 1083.66 523.766C1082.3 520.595 1080.46 518 1079.56 518C1078.66 518 1075.08 520.406 1071.59 523.346C1064.08 529.682 1048.16 538.497 1038.98 541.405C1029.84 544.301 1001.65 545.101 989.76 542.801ZM1044.56 465.27C1049.88 462.548 1054.29 458.872 1058.5 453.653C1071.35 437.699 1076.33 422.645 1076.24 400C1076.15 375.596 1070.12 359.007 1056.52 345.767C1045.52 335.057 1039.3 332.344 1024.09 331.61C1013.54 331.101 1010.55 331.461 1003.54 334.081C991.981 338.405 980.596 349.332 974.257 362.189C967.674 375.54 965.886 383.974 965.818 402C965.771 414.368 966.35 419.208 968.807 427.027C973.243 441.143 982.466 454.893 991.869 461.409C1001.38 467.999 1009.58 470.11 1023.93 469.657C1035.1 469.305 1037.79 468.734 1044.56 465.27ZM43.0659 539.598C34.1281 536.508 28.6272 532.407 23.5814 525.073C18.4306 517.587 15.758 509.052 15.7682 500.121C15.7782 493.184 16.3013 489.606 21.0702 464C24.492 445.627 28.366 423.499 37.6433 369.333C41.6626 345.867 45.8538 322.167 46.9572 316.667C48.8483 307.241 52.8019 285.105 62.5554 229.333C68.6613 194.419 73.3119 184.098 87.5241 173.921C98.5112 166.053 110.271 162.871 125.511 163.643C142.313 164.493 151.485 168.16 161.132 177.884C172.383 189.223 178.047 201.678 190.938 243.426C202.715 281.565 212.409 311.89 224.365 348C228.25 359.733 232.458 373.644 233.716 378.912C237.447 394.529 238.607 394.809 242.76 381.096C244.719 374.626 247.525 364.32 248.996 358.191C250.466 352.063 252.189 346.363 252.823 345.525C254.538 343.259 258.989 330.103 264.391 311.333C267.029 302.167 272.413 284.767 276.355 272.667C280.297 260.567 287.124 239.566 291.526 225.999C303.262 189.828 311.723 176.638 327.825 169.412C345.492 161.484 364.555 161.352 380.1 169.052C391.761 174.828 398.113 181.091 404.228 192.843C409.778 203.509 412.343 214.835 420.345 264C423.687 284.533 427.641 308.233 429.132 316.667C430.623 325.1 432.386 335.6 433.049 340C433.712 344.4 435.804 356.1 437.698 366C454.297 452.783 461.431 496.025 460.653 505.141C459.825 514.853 453.536 528.035 447.481 532.751C428.294 547.694 394.237 542.985 383.561 523.911C379.878 517.332 374.431 496.15 372.441 480.667C371.923 476.633 369.736 463.133 367.582 450.667C365.427 438.2 362.794 422.6 361.73 416C360.666 409.4 358.265 395.3 356.393 384.667C354.521 374.033 352.103 359.033 351.02 351.333C348.413 332.806 345.313 315.108 344.54 314.335C343.981 313.776 342.374 318.799 338.673 332.667C337.988 335.233 332.854 351.561 327.264 368.95C321.674 386.339 314.738 408.539 311.85 418.283C308.962 428.028 304.246 443.8 301.37 453.333C298.494 462.867 293.867 478.467 291.087 488C285.23 508.087 278.494 523.712 273.362 529.114C263.778 539.201 246.185 543.873 228.927 540.914C217.168 538.897 211.078 535.785 204.117 528.233C195.069 518.416 190.913 508.221 179.023 466.667C173.37 446.907 159.44 400.949 155.786 390C153.198 382.246 138.686 333.318 135.123 320.333C133.966 316.117 132.498 312.667 131.861 312.667C131.224 312.667 130.045 317.917 129.24 324.333C126.585 345.519 124.956 355.816 121.699 372C119.928 380.8 117.928 392.8 117.255 398.667C116.581 404.533 114.509 418.333 112.65 429.333C110.79 440.333 108.286 455.933 107.085 464C103.259 489.704 98.6088 512.538 95.9968 518.443C92.3675 526.648 81.309 537.222 73.6168 539.843C65.4138 542.638 51.5352 542.527 43.0659 539.598ZM526.658 540.02C515.931 537.611 510.892 534.638 505.458 527.515C496.187 515.359 496.427 518.768 496.427 399.333V292L500.004 284.371C509.152 264.859 529.538 256.065 549.856 262.866C566.647 268.487 574.657 280.025 577.066 302.062C577.923 309.901 578.305 350.965 578.075 410.667L577.706 506.667L574.476 515.88C570.689 526.679 565.099 532.933 555.209 537.433C546.263 541.503 536.998 542.343 526.658 540.02ZM651.094 538.837C639.045 534.632 632.216 527.492 627.775 514.456L624.668 505.333L624.547 381.333C624.481 313.133 624.748 239.033 625.141 216.667C625.82 178.002 626.009 175.612 628.987 168.109C635.254 152.323 648.505 144.047 667.167 144.261C687.27 144.492 700.247 155.406 704.907 176C705.91 180.435 706.594 211.229 706.95 268C707.244 314.933 707.566 353.633 707.664 354C707.763 354.367 716.075 346.17 726.135 335.786C736.196 325.401 756.427 305.285 771.094 291.084C800.884 262.238 803.48 260.654 820.914 260.68C851.616 260.725 867.111 293.869 848.369 319.41C842.943 326.804 817.257 351.85 799.094 367.457C782.597 381.631 781.71 382.667 783.237 385.966C783.892 387.379 792.527 397.391 802.427 408.215C812.327 419.039 823.359 431.818 826.943 436.614C830.528 441.41 837.44 449.833 842.304 455.333C864.004 479.871 868.158 485.705 871.077 495.745C873.794 505.093 872.995 511.104 867.597 521.905C863.391 530.322 858.006 535.234 848.251 539.549C839.745 543.311 823.294 542.575 813.76 538.004C805.658 534.12 792.284 521.046 781.705 506.667C774.766 497.236 765.112 485.283 746.091 462.571C742.976 458.851 739.131 454.051 737.548 451.904C719.463 427.384 709.934 415.454 708.38 415.39C707.448 415.352 707.169 427.563 707.522 453C708.103 494.867 706.567 509.884 700.469 521.917C691.84 538.945 671.439 545.936 651.094 538.837ZM1236.12 540.608C1222.93 537.973 1215.09 531.534 1208.59 518L1204.43 509.333V400V290.667L1207.71 284C1215.38 268.404 1227.98 260.173 1244.07 260.243C1259.1 260.308 1271.18 267.869 1280.56 283.084C1280.7 283.314 1284.03 281.065 1287.96 278.087C1297.11 271.141 1311.41 264.084 1322.43 261.07C1335.17 257.586 1374.22 257.672 1386.43 261.211C1411.73 268.55 1435.86 287.364 1445.59 307.333C1457.74 332.27 1458.71 342.16 1458.19 434.667C1457.76 508.605 1457.73 509.406 1454.75 516.773C1447.95 533.565 1436.28 541.278 1417.63 541.29C1402.94 541.3 1393.35 536.63 1386.18 525.969C1377.19 512.593 1377.09 511.661 1377.09 437.03C1377.09 383.704 1376.7 368.163 1375.13 359.959C1370.99 338.318 1359.89 328.255 1336.76 325.153C1321.11 323.055 1301.87 332.125 1294.36 345.149C1285.89 359.812 1286.01 358.52 1285.78 435.333C1285.58 504.256 1285.53 505.477 1282.54 514.667C1278.72 526.399 1269.16 536.599 1259.72 539.014C1250.77 541.303 1242.41 541.867 1236.12 540.608ZM505.594 235.351C502.031 233.915 500.525 229.586 497.69 212.635C493.176 185.636 500.081 162.921 518.359 144.643C529.494 133.507 544.243 125.776 554.862 125.506C561.409 125.34 561.718 125.494 562.564 129.333C563.048 131.533 563.525 136.933 563.623 141.333C563.868 152.349 564.459 152.998 572.131 150.689C575.58 149.651 581.948 148.401 586.283 147.91C593.6 147.083 594.283 147.239 595.81 150.093C596.942 152.208 597.215 156.732 596.685 164.584C595.347 184.39 589.115 198.158 575.147 212.169C563.027 224.325 544.047 232.814 524.877 234.651C520.23 235.096 514.627 235.693 512.427 235.977C510.227 236.26 507.152 235.979 505.594 235.351Z" fill="#EACDB0"/>
<path d="M1216.21 709.42C1203.93 705.578 1198.68 698.549 1203.08 691.833C1205.6 687.983 1208.15 687.982 1221.85 691.823C1230.12 694.144 1234.66 693.4 1239.06 688.998C1243 685.055 1243.6 681.302 1240.09 682.449C1228.55 686.23 1226.59 686.465 1220.88 684.756C1212.64 682.288 1204.6 673.802 1201.91 664.744C1199.24 655.773 1199.2 649.705 1201.72 641.238C1206.87 623.98 1224.02 614.947 1239.43 621.383C1243.94 623.267 1244.7 623.244 1248.68 621.097C1252.89 618.832 1253.14 618.845 1256.73 621.516L1260.43 624.273L1261.54 647.468C1262.74 672.758 1261.57 687.783 1257.75 695.821C1252.07 707.797 1232.02 714.359 1216.21 709.416V709.42ZM1238.72 664.515C1244.05 658.217 1242.75 644.019 1236.46 639.898C1229.29 635.204 1221.59 640.427 1220.18 650.93C1218.38 664.344 1231.02 673.606 1238.72 664.515ZM378.566 706.814C375.637 703.697 375.562 702.824 375.093 666.382C374.579 626.479 374.858 624.398 381.178 620.851C384.147 619.184 385.127 619.224 389.246 621.179C393.503 623.199 394.382 623.216 398.804 621.368C410.029 616.678 421.812 620.334 429.978 631.041C442.886 647.964 438.213 673.647 420.319 684.134C414.196 687.722 409.468 687.956 398.094 685.234L394.427 684.356V694.26C394.427 702.384 393.939 704.688 391.708 707.082C388.096 710.96 382.35 710.843 378.566 706.814ZM413.33 664.844C417.132 661.447 417.597 660.26 417.505 654.178C417.391 646.59 414.705 641.344 409.788 639.103C399.331 634.339 390.613 648.893 396.497 661.293C400.234 669.168 406.913 670.577 413.33 664.844ZM262.588 685.997C255.782 684.39 251.737 681.821 249.647 677.78C244.185 667.219 251.87 659.874 262.584 665.414C264.797 666.559 267.902 667.309 269.484 667.081C274.927 666.297 275.72 661.823 275.741 631.763L275.761 603.527L279.37 600.688C283.514 597.428 288.174 597.941 292.427 602.125C294.948 604.604 295.094 606.511 295.094 637.04C295.094 672.631 294.81 674.075 286.434 681.123C279.905 686.617 272.031 688.226 262.588 685.997ZM326.905 686.102C321.267 684.703 313.76 679.934 310.328 675.571C305.47 669.396 303.76 663.432 303.76 652.656C303.76 643.942 304.34 641.202 307.427 635.336C309.633 631.143 313.402 626.701 316.889 624.184C321.916 620.555 323.772 620.006 330.889 620.047C335.402 620.073 340.978 620.93 343.281 621.951C346.921 623.565 348.029 623.536 351.755 621.732C356.812 619.283 360.433 619.939 363.135 623.796C364.697 626.026 365.094 631.904 365.094 652.784C365.094 677.261 364.913 679.204 362.33 682.487C359.284 686.359 355.496 686.866 350.456 684.076C347.701 682.551 346.584 682.54 343.743 684.009C339.021 686.451 331.885 687.338 326.905 686.102ZM341.956 665C345.022 661.696 345.305 660.492 344.818 652.82C344.356 645.54 343.747 643.851 340.611 641.154C338.595 639.419 335.545 638 333.834 638C323.121 638 319.263 657.757 328.432 665.667C333.113 669.706 337.805 669.474 341.956 665ZM465.76 686.087C451.331 682.574 442.514 670.624 442.456 654.501C442.402 639.289 448.748 627.902 460.271 622.536C468.707 618.608 474.54 618.505 482.069 622.15C487.439 624.749 488.069 624.8 490.262 622.816C493.558 619.833 498.862 620.131 501.887 623.47C504.171 625.991 504.468 628.918 504.836 652.528C505.226 677.618 505.118 678.943 502.405 682.391C499.149 686.531 495.752 686.933 490.456 683.805C486.942 681.729 486.42 681.766 480.83 684.472C474.657 687.46 472.397 687.702 465.76 686.087ZM477.61 667.391C484.121 664.915 487.289 652.417 483.368 644.667C481.24 640.46 475.224 637.511 470.954 638.583C463.96 640.338 460.009 654.132 464.288 661.853C465.87 664.707 470.938 668.495 473.34 668.619C473.843 668.645 475.764 668.092 477.61 667.391ZM602.23 685.56C593.59 682.329 586.756 675.637 583.058 666.787C580.507 660.681 580.525 645.02 583.091 638.879C585.953 632.03 592.884 624.636 599.083 621.82C606.045 618.657 617.505 618.67 624.502 621.848C638.456 628.186 647.055 649.182 638.997 657.24C637.313 658.924 633.572 659.333 619.888 659.333C610.529 659.333 602.513 659.692 602.075 660.13C600.599 661.606 602.723 664.751 606.523 666.716C611.665 669.375 617.966 669.12 624.906 665.971C632.141 662.688 636.046 662.632 638.887 665.772C643.838 671.243 639.906 678.59 629.105 684.049C623.038 687.116 608.564 687.93 602.23 685.56ZM621.821 644.568C623.52 641.819 616.96 636.667 611.76 636.667C605.82 636.667 599.029 642.546 602.462 644.716C605.187 646.44 620.738 646.32 621.821 644.568ZM659.439 685.508C647.969 681.248 643.584 675.513 646.75 668.908C649.43 663.316 654.306 662.379 662.466 665.89C669.73 669.015 676.245 668.816 674.976 665.507C674.244 663.6 672.892 662.839 660.795 657.529C650.92 653.195 647.384 647.978 648.167 638.901C648.852 630.95 652.164 626.229 659.788 622.333C673.179 615.491 693.094 622.11 693.094 633.403C693.094 639.107 690.366 641.16 684.112 640.162C668.238 637.628 667.76 637.611 667.76 639.585C667.76 640.689 672.451 643.762 678.708 646.758C691.894 653.072 695.133 656.896 694.999 665.996C694.828 677.588 685.241 685.978 671.094 686.918C667.427 687.161 662.183 686.527 659.439 685.508ZM721.547 685.42C713.6 682.935 708.305 678.735 704.099 671.58C700.776 665.928 700.427 664.108 700.427 652.453C700.427 640.27 700.645 639.261 704.464 633.824C710.726 624.907 718.259 620.279 727.612 619.602C731.938 619.289 737.693 619.764 740.4 620.658C751.285 624.25 761.054 637.916 761.081 649.591C761.101 658.214 758.55 659.333 738.876 659.333C720.858 659.333 718.317 660.416 724.288 665.552C729.052 669.65 735.574 669.58 744.547 665.334C752.532 661.557 757.647 662.326 759.597 667.598C761.228 672.005 759.977 674.959 754.595 679.411C745.943 686.568 732.836 688.951 721.547 685.42ZM738.985 645.191C741.758 644.127 741.646 643.096 738.375 639.585C734.867 635.82 727.942 635.724 724.012 639.385C720.485 642.671 720.321 644.269 723.427 645.081C727.037 646.024 736.636 646.092 738.985 645.191ZM879.094 686.159C868.597 683.414 858.842 674.425 855.974 664.856C851.875 651.171 855.897 634.618 865.237 626.744C872.364 620.735 877.863 619.001 887.982 619.572C895.323 619.987 898.019 620.812 902.63 624.053C909.402 628.812 914.578 638.166 915.448 647.216C915.96 652.545 915.571 654.19 913.249 656.512C910.678 659.083 908.953 659.333 893.839 659.333C875.513 659.333 872.963 660.399 878.954 665.552C883.712 669.644 890.521 669.58 899.094 665.363C907.243 661.354 908.385 661.292 911.76 664.667C920.065 672.971 908.236 684.989 890.192 686.579C886.288 686.923 881.294 686.734 879.094 686.159ZM890.26 645.167C894.945 644.23 895.448 642.672 892.22 639.105C889.512 636.112 882.738 635.93 878.724 638.742C871.671 643.682 878.545 647.51 890.26 645.167ZM940.856 686.026C924.943 681.223 915.753 659.979 921.711 641.765C924.727 632.545 927.756 628.47 935.325 623.457C942.83 618.486 950.755 618.028 959.628 622.054C964.895 624.444 965.725 624.509 967.733 622.691C970.109 620.542 975.378 620.041 978.01 621.714C981.483 623.922 982.427 630.949 982.427 654.574C982.427 677.24 982.231 679.223 979.664 682.487C976.461 686.558 970.013 687.245 966.326 683.908C964.218 682.001 963.538 682.059 958.607 684.575C953.032 687.419 947.082 687.905 940.856 686.026ZM958.53 664.769C961.824 661.475 962.427 659.814 962.427 654.036C962.427 642.453 957.741 636.959 948.942 638.223C944.815 638.816 939.76 646.581 939.76 652.329C939.76 658.296 943.422 665.935 946.969 667.369C951.883 669.356 954.54 668.758 958.53 664.769ZM518.241 683.454C515.152 680.954 515.086 680.418 514.685 654.396C514.295 629.044 514.401 627.726 517.115 624.275C520.203 620.35 525.868 619.462 530.273 622.214C532.215 623.426 533.945 623.282 538.282 621.547C550.087 616.824 563.481 620.271 569.217 629.509C572.162 634.251 572.459 636.306 572.899 655.008C573.41 676.679 572.971 680.598 569.663 683.907C566.621 686.949 559.352 686.564 556.3 683.199C554.125 680.801 553.665 677.625 553.094 661.079C552.462 642.78 552.261 641.625 549.279 639.213C545.167 635.887 540.793 635.983 537.634 639.47C535.463 641.865 534.997 645.045 534.427 661.336C533.857 677.628 533.391 680.806 531.22 683.199C528.055 686.69 522.379 686.801 518.241 683.454ZM807.658 682.103L803.76 678.205V641.375V604.545L807.033 601.273C808.833 599.473 811.86 598 813.76 598C815.66 598 818.688 599.473 820.488 601.273L823.76 604.545V635.13C823.76 661.789 824.031 665.819 825.869 666.524C827.029 666.969 833.014 667.333 839.169 667.333C850.336 667.333 850.363 667.341 852.498 671.47C854.27 674.897 854.359 676.279 853.016 679.521C852.124 681.674 850.316 684.012 848.999 684.718C847.681 685.423 838.717 686 829.079 686H811.555L807.658 682.103ZM994.524 682.487C991.959 679.226 991.76 677.239 991.762 654.82C991.762 634.496 992.134 629.927 994.096 626C996.723 620.742 1001.41 619.37 1007.77 622.003C1010.77 623.246 1012.27 623.137 1015.56 621.438C1021.01 618.617 1024.04 618.786 1028.32 622.153C1031.23 624.444 1031.83 625.881 1031.5 629.82C1031.12 634.314 1030.46 634.989 1022.44 639.101C1017.69 641.539 1013.35 644.239 1012.8 645.101C1012.25 645.962 1011.79 653.027 1011.78 660.801C1011.76 675.973 1010.26 682.618 1006.37 684.695C1002.02 687.025 997.419 686.167 994.524 682.487ZM1039.66 682.56C1036.51 679.206 1036.42 678.471 1035.96 653.56C1035.52 628.988 1035.61 627.858 1038.39 624.333C1041.5 620.396 1048.48 619.255 1051.43 622.203C1052.59 623.362 1054.8 623.163 1060.42 621.393C1073.54 617.268 1085.83 621.4 1090.84 631.625C1094.09 638.254 1094.85 675.46 1091.85 681.129C1088.49 687.476 1078.85 687.582 1075.99 681.303C1075.06 679.266 1074.43 671.099 1074.43 661.183C1074.43 640.79 1072.86 636.734 1064.97 636.687C1057.95 636.646 1056.51 640.417 1055.6 661.138C1055.14 671.512 1054.69 680.127 1054.6 680.281C1054.5 680.436 1053.11 681.786 1051.51 683.281C1047.57 686.948 1043.55 686.703 1039.66 682.56ZM1106.43 682.364C1103.68 678.877 1103.59 677.644 1104 652.244C1104.42 626.263 1104.49 625.712 1107.57 623.213C1112.23 619.45 1117.87 619.904 1120.73 624.272C1122.74 627.333 1123.16 631.707 1123.54 653.276C1123.98 677.639 1123.88 678.824 1121.11 682.337C1117.13 687.404 1110.4 687.417 1106.43 682.364ZM1138.13 684.582C1133.93 682.131 1132.97 674.013 1133.94 649.163C1134.73 628.804 1135.19 625.235 1137.31 623.119C1140.2 620.224 1146.23 619.921 1149.75 622.493C1151.89 624.063 1153.01 623.973 1157.67 621.856C1167.32 617.471 1179.46 619.234 1186.23 626.008C1192.17 631.944 1193.52 639.904 1192.37 662.15C1191.28 683.379 1190.14 686 1181.97 686C1174.27 686 1173.32 683.614 1172.68 662.551C1172.36 652.05 1171.43 642.534 1170.56 640.918C1168.86 637.745 1163.98 635.994 1160.19 637.198C1155.21 638.778 1153.96 643.343 1153.18 662.8C1152.66 675.833 1151.87 682.275 1150.6 683.8C1148.57 686.232 1141.7 686.663 1138.13 684.582ZM1108.76 615.227C1107.48 614.479 1105.49 612.061 1104.35 609.852C1102.66 606.592 1102.56 604.972 1103.79 601.242C1106.91 591.799 1118.73 591.203 1123.54 600.246C1126.04 604.941 1125.36 608.609 1121.2 612.769C1117.2 616.769 1112.87 617.623 1108.76 615.227ZM991.307 542.026C961.387 536.588 935.319 521.024 915.759 496.918C893.841 469.906 883.717 434.801 885.508 392.026C887.185 351.955 899.299 323.126 926.341 294.847C936.674 284.043 946.5 277.08 961.486 269.945C974.807 263.603 984.436 261.018 1001.26 259.27C1030.26 256.255 1054.42 263.15 1075.61 280.498L1081.46 285.285L1084.91 280.642C1095.04 267.019 1105.1 261.62 1119.94 261.829C1134.5 262.033 1146.14 269.541 1152.01 282.509L1155.09 289.333L1155.47 398.241C1155.84 504.141 1155.78 507.357 1153.19 514.713C1149.79 524.385 1145.17 530.394 1137.83 534.697C1119.16 545.64 1093.46 539.619 1085.09 522.338C1083.26 518.552 1081.16 515.435 1080.43 515.411C1079.69 515.387 1074.96 518.691 1069.92 522.754C1059.72 530.965 1049.46 536.563 1038.43 539.951C1029.9 542.567 1001.23 543.83 991.307 542.026ZM1044.1 466.883C1057.7 460.232 1070.29 442.626 1075.26 423.333C1078.13 412.2 1078.13 389.795 1075.26 377.667C1070.79 358.742 1058.89 342.483 1043.65 334.473C1036.99 330.968 1035.3 330.676 1021.76 330.671C1008.6 330.667 1006.31 331.037 999.404 334.272C968.209 348.89 954.406 399.472 971.435 436.761C978.961 453.239 989.671 463.761 1004.18 468.932C1014.97 472.776 1034.07 471.796 1044.11 466.883H1044.1ZM43.0659 538.265C33.8775 535.088 28.796 531.181 23.8719 523.507C15.4989 510.459 15.396 502.674 23.0405 460.667C26.5331 441.475 28.0467 432.922 35.665 389.333C37.8439 376.867 41.4783 356.167 43.7414 343.333C46.0045 330.5 49.5897 310.1 51.7087 298C70.6238 189.985 69.7958 193.111 82.9948 179.883C93.738 169.117 102.169 165.77 120.427 165.024C131.34 164.579 135.148 164.966 141.404 167.16C163.727 174.988 172.39 187.945 187.078 235.467C191.929 251.16 203.645 288.3 213.113 318C222.582 347.7 231.883 377.29 233.781 383.755C235.68 390.22 237.868 395.298 238.644 395.039C239.99 394.59 247.76 372.523 247.76 369.148C247.76 368.26 250.745 358.638 254.393 347.766C258.04 336.895 262.569 322.6 264.456 316C267.89 303.995 282.501 257.797 293.975 222.667C304.361 190.867 311.631 179.311 326.069 171.65C336.053 166.353 347.879 164.102 360.825 165.034C377.77 166.255 390.982 173.913 399.873 187.669C407.468 199.421 409.669 207.935 417.71 256.667C426.92 312.49 431.756 340.369 438.406 376C455.066 465.254 460.117 496.295 459.369 504.818C458.599 513.599 454.419 523.766 449.356 529.172C435.701 543.753 402.689 543.725 388.832 529.122C379.423 519.206 379.631 520.248 350.447 337.333C348.107 322.667 345.665 310.116 345.02 309.444C343.643 308.007 343.4 308.611 339.978 322C338.573 327.5 332.609 347.3 326.724 366C320.84 384.7 310.835 417.4 304.491 438.667C278.033 527.359 277.722 528.058 261.238 535.776C253.367 539.462 251.076 539.907 239.76 539.951C218.472 540.033 206.069 533.334 197.444 517.095C193.398 509.477 190.917 501.809 169.045 429.333C163.069 409.533 155.821 385.533 152.938 376C150.055 366.467 144.66 348.182 140.948 335.368C137.237 322.553 133.562 310.876 132.782 309.417C131.388 306.813 131.343 306.818 130.282 309.688C129.687 311.295 128.536 317.873 127.724 324.305C126.911 330.737 123.921 350.1 121.079 367.333C118.237 384.567 114.03 410.667 111.731 425.333C103.434 478.248 98.4917 506.794 96.4493 513.591C93.493 523.429 83.2856 534.322 73.6402 537.931C64.6078 541.31 52.2629 541.445 43.0659 538.265ZM525.895 538.614C515.474 535.996 510.12 532.504 505.245 525.143C497.058 512.783 496.953 511.07 497.386 396.667C497.832 279.201 497.109 286.7 509.263 273.402C516.827 265.126 524.089 262 535.756 262C558.877 262 572.604 275.273 575.71 300.632C577.509 315.321 577.521 491.345 575.724 503.776C573.226 521.053 566.66 531.11 554.322 536.56C545.965 540.251 535.438 541.011 525.895 538.614ZM651.956 537.918C640.341 534.125 632.808 526.377 629.117 514.428C626.482 505.896 626.427 502.419 626.427 342.785C626.427 181.07 626.448 179.79 629.212 171.605C636.116 151.16 655.487 141.027 677.087 146.56C687.361 149.192 693.16 153.364 697.98 161.589C704.987 173.545 705.053 174.513 705.234 267.587C705.329 316.777 705.915 354.35 706.594 354.77C708.241 355.787 711.938 352.584 725.094 338.742C731.327 332.183 749.981 313.512 766.548 297.251C800.551 263.873 803.479 261.973 820.81 262.029C841.311 262.096 854.504 275.011 854.817 295.319C855.031 309.259 850.766 316.556 831.174 335.769C822.33 344.442 807.444 358.184 798.094 366.307C787.991 375.085 781.094 382.059 781.094 383.496C781.094 385.849 788.322 394.737 809.153 418C814.734 424.233 822.255 432.983 825.864 437.444C829.474 441.905 838.966 453.305 846.959 462.778C864.933 484.079 867.454 487.858 869.876 497.133C874.089 513.265 865.038 530.641 848.514 538.146C844.814 539.827 839.92 540.617 833.094 540.636C815.124 540.687 804.571 533.667 785.094 508.704C780.327 502.595 771.771 491.837 766.081 484.798C760.391 477.759 746.355 460 734.89 445.333C710.982 414.75 707.834 411.131 706.077 412.216C705.282 412.708 705.14 425.613 705.698 446.502C707.386 509.605 703.349 526.801 684.707 535.922C674.733 540.801 662.979 541.518 651.956 537.918ZM1235.41 539.283C1222.79 536.142 1215.35 529.836 1209.5 517.333L1205.76 509.333V400V290.667L1208.94 284.667C1217.42 268.65 1228.51 261.251 1243.76 261.442C1258.2 261.623 1267.72 267.127 1277.87 281.166L1280.64 284.998L1289.02 278.827C1299.11 271.4 1311.06 265.535 1322.58 262.354C1334.68 259.011 1372.73 259.004 1385.09 262.341C1414.75 270.345 1438.78 291.244 1448.89 317.824C1456.26 337.181 1456.43 339.682 1456.43 427.333C1456.43 503.092 1456.27 508.442 1453.9 515.266C1450.65 524.587 1441.61 534.399 1433.3 537.604C1425.05 540.79 1410.43 540.774 1402.13 537.571C1393.07 534.074 1384.52 524.105 1381.11 513.064C1378.57 504.859 1378.43 500.734 1378.43 437.438C1378.43 396.846 1377.88 367.375 1377.03 362.578C1372.44 336.475 1357.73 323.95 1331.76 324.039C1322.44 324.07 1319.11 324.688 1313.03 327.507C1299.26 333.896 1292.91 341.663 1287.02 359.333C1284.77 366.061 1284.57 372.45 1284.5 436.667C1284.43 505.93 1284.4 506.75 1281.43 514.622C1277.36 525.397 1272.37 531.309 1263.7 535.612C1255.53 539.666 1243.31 541.252 1235.41 539.283ZM503.631 230.333C500.102 221.067 498.163 206.45 498.651 192.793C499.132 179.345 499.431 178.102 504.875 166.906C512.249 151.744 524.75 138.546 537.233 132.746C548.145 127.677 557.996 125.034 559.682 126.726C560.38 127.427 561.371 133.569 561.884 140.375C562.397 147.181 563.338 153.072 563.975 153.466C564.613 153.86 570.809 152.871 577.745 151.268C584.681 149.666 591.182 148.671 592.192 149.059C594.797 150.058 595.836 161.378 594.311 172.147C591.948 188.835 581.041 207.105 567.598 216.894C553.936 226.843 531.142 234 513.117 234C505.52 234 504.943 233.777 503.631 230.333Z" fill="#DFB090"/>
<path d="M379.658 706.103L375.76 702.205V664.709V627.212L379.033 623.939C382.844 620.129 385.955 619.818 390.241 622.82C393.078 624.807 393.703 624.797 398.384 622.686C408.536 618.108 419.541 620.482 427.135 628.888C433.788 636.252 436.167 642.418 436.308 652.667C436.614 674.924 418.308 690.933 399.891 684.513C397.544 683.694 395.205 683.445 394.692 683.958C394.18 684.47 393.9 687.99 394.071 691.778C394.477 700.792 392.487 706.574 388.326 708.47C383.875 710.498 384.12 710.565 379.658 706.103ZM414.907 664.377C418.391 660.649 418.672 659.622 418.157 652.5C417.312 640.824 410.569 634.628 402.394 638.014C397.051 640.227 394.129 645.303 394.02 652.563C393.862 663.012 400.797 670.977 408.427 669.11C409.894 668.752 412.81 666.622 414.907 664.377ZM1213.12 707.322C1209.83 705.781 1206.08 703.56 1204.78 702.387C1201.36 699.291 1201.76 693.167 1205.54 690.692C1208.36 688.84 1209.35 688.898 1216.41 691.328C1229.53 695.842 1238.78 694.135 1242.23 686.564C1244.54 681.489 1242.54 680.197 1236.37 682.777C1229.5 685.646 1219.94 684.696 1213.77 680.533C1210.83 678.548 1207.52 674.342 1205.06 669.454C1195.23 649.922 1204.08 625.992 1223.1 620.666C1229.03 619.005 1231.65 619.357 1240.1 622.948C1244.7 624.907 1245.29 624.901 1247.54 622.871C1250.85 619.87 1254.84 620.102 1257.89 623.475C1260.23 626.066 1260.43 628.667 1260.43 657.141C1260.43 687.393 1260.36 688.131 1257.09 694.66C1252.12 704.59 1244.55 708.778 1230.17 709.538C1220.9 710.028 1218.12 709.668 1213.12 707.322ZM1240.34 663.947C1241.66 661.933 1242.43 657.762 1242.43 652.611C1242.43 645.381 1241.99 644.022 1238.53 640.564C1236.18 638.215 1233.23 636.667 1231.09 636.667C1228.96 636.667 1226.01 638.215 1223.66 640.564C1220.22 643.997 1219.76 645.405 1219.76 652.384C1219.76 660.925 1222.71 666.536 1228.27 668.595C1232.1 670.009 1237.81 667.809 1240.34 663.947ZM257.097 683C249.988 679.383 247.008 673.686 249.553 668.581C251.685 664.305 254.778 663.9 263.261 666.783C270.053 669.092 270.414 669.092 272.968 666.78C275.441 664.542 275.648 662.352 276.024 634.403C276.423 604.733 276.459 604.4 279.575 601.88C283.803 598.459 287.222 598.673 291.154 602.606L294.427 605.879L294.395 634.939C294.377 650.922 293.824 666.323 293.165 669.163C289.911 683.189 271.414 690.286 257.097 683ZM323.943 684.174C300.608 675.73 296.703 639.11 317.634 625C325.073 619.985 333.456 619.233 342.33 622.783C347.265 624.758 347.897 624.737 351.736 622.469C355.486 620.254 356.174 620.218 359.473 622.063C362.765 623.904 363.167 624.991 363.906 634.044C365.259 650.621 363.74 679.616 361.376 682.333C359.186 684.852 352.438 685.508 351.094 683.333C349.91 681.419 345.993 681.69 341.579 683.992C337.055 686.352 330.157 686.423 323.943 684.174ZM339.639 668.063C349.878 662.768 347.839 640.744 336.784 637.235C332.951 636.019 326.553 639.223 324.364 643.455C320.047 651.802 323.594 665.744 330.769 668.628C334.903 670.29 335.392 670.259 339.639 668.063ZM461.76 684.148C444.867 676.768 438.159 655.225 447.151 637.225C452.277 626.964 459.419 621.802 469.663 620.953C475.391 620.478 478.189 620.968 482.467 623.198L487.941 626.051L491.364 623.359C495.733 619.923 496.521 619.973 500.488 623.939C503.743 627.195 503.76 627.353 503.76 653.733C503.76 677.732 503.529 680.463 501.322 682.46C498.283 685.211 492.627 685.318 490.427 682.667C488.21 679.995 486.013 680.146 480.793 683.328C475.787 686.381 467.671 686.73 461.76 684.148ZM481.733 665.482C485.738 661.477 487.223 653.914 485.278 647.422C483.315 640.869 479.378 637.467 473.76 637.467C468.143 637.467 464.206 640.869 462.243 647.422C459 658.246 464.649 668.667 473.76 668.667C477.03 668.667 479.558 667.657 481.733 665.482ZM560.381 684.731C555.279 682.663 554.691 680.386 554.221 660.883C553.762 641.832 553.747 641.755 550.019 638.55C547.962 636.781 545.145 635.333 543.76 635.333C542.375 635.333 539.559 636.781 537.501 638.55C533.773 641.756 533.759 641.829 533.306 660.883C532.797 682.304 531.902 684.667 524.296 684.667C516.413 684.667 515.76 682.214 515.76 652.577C515.76 629.312 516.019 626.191 518.094 624.409C522.1 620.968 525.166 620.558 529.176 622.927C532.792 625.063 533.297 625.063 537.768 622.931C543.933 619.991 555.135 620.025 561.094 623.002C564.131 624.519 566.808 627.41 568.76 631.282C571.503 636.722 571.76 639.082 571.76 658.852V680.473L568.247 683.236C564.373 686.283 564.262 686.305 560.381 684.731ZM598.732 682.569C590.446 678.44 584.579 670.972 582.363 661.731C575.211 631.921 605.177 608.864 629.383 625.552C635.587 629.829 641.094 640.462 641.094 648.167C641.094 656.868 639.173 657.958 623.332 658.25C615.867 658.388 608.26 658.54 606.427 658.589C600.851 658.736 599.481 660.334 601.84 663.935C606.299 670.739 615.053 671.485 626.935 666.072C633.687 662.996 637.099 663.694 639.777 668.697C641.588 672.081 639.832 675.489 634.076 679.762C624.267 687.043 609.987 688.177 598.732 682.569ZM623.228 644.45C624.703 642.062 616.356 635.333 611.919 635.333C607.259 635.333 601.094 639.945 601.094 643.43C601.094 645.752 602.115 646 611.682 646C618.29 646 622.63 645.417 623.228 644.45ZM655.722 683C652.457 681.35 648.88 678.35 647.773 676.333C645.975 673.058 645.979 672.275 647.805 669C650.279 664.564 654.502 663.745 660.949 666.453C668.539 669.64 672.45 670.098 675.161 668.116C678.82 665.44 676.1 662.872 665.188 658.703C655.572 655.028 651.492 651.676 649.166 645.537C645.71 636.416 654.016 623.762 665.328 620.916C678.72 617.546 695.247 626.449 692.378 635.488C691.008 639.803 687.27 640.846 681.045 638.65C677.954 637.559 673.4 636.667 670.926 636.667C667.331 636.667 666.427 637.197 666.427 639.306C666.427 642.052 672.055 645.56 681.207 648.517C692.838 652.275 698.004 665.688 691.535 675.333C687.187 681.817 678.387 686 669.094 686C664.031 686 659.764 685.043 655.722 683ZM717.104 682.439C704.947 676.177 698.238 662.13 700.428 647.525C704.125 622.872 731.902 611.327 749.463 627.144C758.553 635.332 763.299 649.648 758.775 655.235C756.569 657.959 754.962 658.375 745.677 658.628C739.856 658.786 731.644 659.009 727.427 659.124C718.893 659.357 717.733 660.982 722.76 665.66C727.925 670.465 734.411 670.755 743.68 666.595C752.729 662.534 757.352 663.178 759.119 668.746C761.455 676.107 748.498 684.789 733.888 685.653C725.5 686.149 723.596 685.784 717.104 682.439ZM741.691 644.78C743.029 642.613 735.748 635.333 732.242 635.333C725.946 635.333 719.76 640.013 719.76 644.776C719.76 646.372 740.704 646.376 741.691 644.78ZM875.094 684.077C872.16 682.994 867.249 679.46 864.18 676.223C849.364 660.598 852.609 635.421 870.896 624.115C876.22 620.823 878.691 620.167 885.76 620.167C900.181 620.167 910.041 628.271 913.845 643.253C916.883 655.219 911.897 659.895 896.848 659.19C892.216 658.973 885.277 658.917 881.427 659.064C873.401 659.373 872.533 661.09 877.87 666.101C882.499 670.446 893.104 670.526 899.994 666.268C907.903 661.38 913.427 663.208 913.427 670.715C913.427 681.366 889.932 689.556 875.094 684.077ZM895.76 643.43C895.76 639.198 889.184 634.97 883.929 635.823C878.621 636.684 874.427 640.09 874.427 643.54C874.427 645.726 875.615 646 885.094 646C894.738 646 895.76 645.754 895.76 643.43ZM939.8 684.517C928.316 679.933 921.094 668.446 921.094 654.761C921.094 635.406 931.109 622.033 946.435 620.924C951.865 620.531 955.508 621.011 958.522 622.514C963.903 625.199 965.695 625.208 969.718 622.572C973.36 620.185 977.371 621.536 979.73 625.943C980.523 627.425 981.094 639.154 981.094 653.973C981.094 679.25 981.068 679.481 977.821 682.727C973.826 686.722 971.825 686.817 967.265 683.23L963.743 680.46L959.261 683.23C954.431 686.215 945.531 686.804 939.8 684.517ZM959.861 665.226C962.598 662.313 963.094 660.456 963.094 653.117C963.094 645.011 962.811 644.195 958.739 640.557C953.611 635.975 949.434 635.633 944.639 639.405C937.569 644.966 937.136 659.375 943.837 666.076C947.742 669.982 955.795 669.555 959.861 665.226ZM999.76 684.942C998.66 684.599 996.71 683.404 995.427 682.286C993.351 680.478 993.094 677.327 993.094 653.733C993.094 627.353 993.111 627.195 996.366 623.939C1000.22 620.09 1002.66 619.865 1007.78 622.891C1011.3 624.967 1011.77 624.967 1014.94 622.891C1018.45 620.587 1024.67 619.979 1027.23 621.687C1028.03 622.226 1029.38 623.977 1030.23 625.579C1032.92 630.689 1030.09 634.932 1021.46 638.714C1017.22 640.571 1013.01 643.085 1012.09 644.3C1010.97 645.784 1010.43 651.8 1010.43 662.625C1010.43 674.642 1009.93 679.451 1008.47 681.537C1006.34 684.582 1002.91 685.923 999.76 684.942ZM1078.43 683.333C1076.05 680.958 1075.76 678.883 1075.75 664.333C1075.75 655.35 1075.12 645.757 1074.36 643.016C1072.12 634.929 1065.33 632.963 1058.87 638.524C1055.19 641.684 1055.15 641.889 1054.64 660.432C1054.2 676.636 1053.78 679.52 1051.56 681.908C1048.02 685.712 1043.2 685.401 1039.86 681.154C1037.28 677.876 1037.09 675.92 1037.09 652.027C1037.09 629.285 1037.36 626.189 1039.43 624.409C1043.4 620.997 1046.62 620.487 1050.04 622.729C1053 624.664 1053.83 624.667 1059.43 622.76C1074.98 617.46 1088.04 622.829 1091.63 636C1093.54 643.017 1093.53 675.586 1091.61 679.79C1090.26 682.771 1085.45 686 1082.36 686C1081.67 686 1079.89 684.8 1078.43 683.333ZM1108.61 683.237L1105.09 680.473V654.051C1105.09 630.804 1105.37 627.304 1107.43 624.93C1110.97 620.837 1114.91 620.219 1118.57 623.182C1121.72 625.726 1121.77 626.113 1122.17 653.057L1122.58 680.355L1118.99 683.178C1114.52 686.696 1113.02 686.705 1108.61 683.237ZM1140.23 684.007C1137.99 683.066 1135.77 681.281 1135.29 680.039C1133.76 676.051 1134.31 630.378 1135.93 626.82C1136.76 625.001 1139.12 622.816 1141.18 621.964C1144.28 620.679 1145.61 620.823 1148.97 622.806C1152.8 625.07 1153.27 625.076 1157.77 622.932C1169.16 617.5 1184.19 621.861 1189.11 632.026C1191.71 637.398 1191.91 639.683 1191.52 659.235C1191.05 683.015 1190.3 685.111 1182.28 685.111C1174.48 685.111 1173.09 681.581 1173.09 661.786C1173.09 642.107 1171.67 637.444 1165.23 636.03C1160.64 635.022 1156.57 637.159 1154.52 641.658C1153.74 643.382 1153.08 652.114 1153.07 661.063C1153.05 678.269 1151.85 682.957 1147.03 684.719C1145.47 685.286 1142.54 684.979 1140.23 684.007ZM807.783 681.358C804.681 678.055 804.675 677.976 804.694 641.124C804.713 604.434 804.732 604.184 807.718 601.766C811.647 598.585 816.438 598.677 819.76 602C822.648 604.887 822.475 602.501 822.888 645.333L823.094 666.667L836.206 667.333C847.177 667.891 849.626 668.423 851.206 670.588C853.867 674.236 853.55 678.877 850.427 682C848.018 684.409 845.983 684.667 829.326 684.667C811.423 684.667 810.802 684.571 807.783 681.358ZM1106.52 611.82C1101.88 605.916 1103.62 598.154 1110.19 595.43C1114.54 593.632 1118.81 594.997 1122.05 599.218C1126.64 605.189 1121.42 615.333 1113.76 615.333C1110.52 615.333 1108.53 614.368 1106.52 611.82ZM985.925 539.888C957.583 533.59 934.965 519.437 916.638 496.531C898.469 473.822 889.152 448.457 886.326 414.009C882.336 365.362 898.434 321.875 931.987 290.667C953.778 270.398 983.153 259.218 1014.19 259.38C1035.6 259.492 1055.05 266.11 1072.16 279.111C1077.15 282.9 1081.65 285.999 1082.16 285.998C1082.68 285.997 1084.79 283.31 1086.86 280.028C1091.88 272.092 1098.85 266.769 1107.67 264.15C1122.12 259.859 1134.35 262.746 1144.04 272.735C1155.43 284.483 1154.97 279.093 1155.04 402L1155.09 509.333L1150.96 518.068C1146.11 528.34 1139.32 534.547 1129.85 537.372C1110.95 543.01 1092.46 535.986 1084.74 520.237L1080.94 512.474L1074.02 518.386C1063.27 527.561 1050.79 535.1 1041.19 538.217C1029.52 542.006 999.538 542.912 985.925 539.888ZM1044.21 467.538C1065 457.303 1078.43 431.219 1078.43 401.05C1078.43 369.065 1065.47 344.196 1043.09 333.248C1035.87 329.712 1033.81 329.333 1021.76 329.333C1009.52 329.333 1007.69 329.685 999.412 333.603C954.527 354.865 950.29 436.198 992.603 464.292C1001.81 470.408 1011.04 472.689 1024.63 472.209C1033.71 471.888 1036.94 471.118 1044.21 467.538ZM822.427 538.836C809.486 535.087 802.35 529.232 787.089 509.842C772.271 491.016 761.46 477.412 748.912 461.803C742.045 453.261 731.126 439.367 724.647 430.929C711.817 414.217 706.953 409.03 705.488 410.494C704.966 411.016 704.509 432.869 704.472 459.055C704.413 500.958 704.123 507.499 702.049 513.608C696.806 529.048 685.78 537.717 669.747 539.004C650.565 540.544 636.607 532.134 630.3 515.238L627.101 506.667L626.747 346.667C626.503 236.226 626.838 184.511 627.829 179.707C629.891 169.718 636.303 157.951 642.041 153.627C657.815 141.738 684.384 144.444 695.383 159.059C704.466 171.127 704.28 168.984 704.781 267.667C705.154 341.178 705.545 356.667 707.029 356.667C708.017 356.667 715.036 350.321 722.626 342.566C752.949 311.585 791.479 273.821 796.636 270.028C799.638 267.82 805.979 264.995 810.727 263.75C818.068 261.824 820.435 261.729 826.559 263.11C836.883 265.44 843.808 269.803 848.666 277.038C856.827 289.194 855.872 305.589 846.256 318.397C840.641 325.876 813.71 351.772 792.738 369.859C785.236 376.328 779.76 382.068 779.76 383.461C779.76 384.787 786.21 393.186 794.094 402.125C801.977 411.064 813.827 424.771 820.427 432.584C868.678 489.701 869.85 491.434 869.631 505.333C869.338 523.97 855.445 538.111 835.655 539.915C831.583 540.287 825.808 539.816 822.427 538.836ZM42.264 537.25C35.0131 535.017 26.4775 527.253 22.2612 519.055C17.0924 509.005 17.3712 497.648 23.6449 462.667C30.0939 426.708 31.8328 416.877 47.8178 326C54.4608 288.233 61.0803 250.433 62.5278 242C68.0954 209.561 69.3804 203.975 73.2352 195.455C80.6859 178.988 94.6535 168.801 113.427 166.142C132.254 163.476 150.211 168.956 161.29 180.748C170.398 190.444 176.996 205.435 188.248 242C193.777 259.967 204.664 294.467 212.442 318.667C220.219 342.867 228.676 369.866 231.236 378.665C233.796 387.464 236.408 395.181 237.042 395.815C239.334 398.106 241.13 394.958 245.156 381.599C250.847 362.716 263.197 322.919 277.305 278C301.838 199.892 305.363 191.055 316.444 179.872C325.817 170.411 334.883 167.06 353.094 166.323C365.089 165.837 368.192 166.169 374.763 168.642C389.711 174.265 400.725 186.095 406.417 202.637C407.884 206.902 412.386 230.253 416.421 254.529C425.482 309.048 430.494 337.944 436.563 370.667C439.148 384.6 443.346 407.7 445.893 422C460.089 501.713 460.394 504.643 455.764 517.019C449.104 534.817 426.582 543.84 405.072 537.327C386.288 531.639 380.868 521.37 374.321 479.063C372.812 469.312 370.785 456.533 369.817 450.667C368.848 444.8 365.876 426.5 363.213 410C359.128 384.699 353.754 351.574 347.762 314.757C345.935 303.532 344.343 302.839 341.781 312.156C339.067 322.029 331.978 345.688 325.25 367.333C322.4 376.5 313.391 406.2 305.229 433.333C284.055 503.727 281.638 511.064 276.679 520C268.789 534.218 255.31 540.297 234.471 539.034C216.351 537.936 204.479 530.048 196.729 513.957C194.798 509.947 189.839 495.267 185.709 481.333C181.579 467.4 173.721 441.3 168.246 423.333C152.185 370.624 149.392 361.312 141.846 335.333C132.901 304.539 131.95 301.992 130.419 304.728C129.785 305.862 128.299 313.662 127.117 322.061C125.935 330.461 122.628 351.733 119.768 369.333C114.735 400.303 110.307 428.075 103.079 474C96.8756 513.423 94.7626 520.04 85.5399 528.927C77.7442 536.439 70.2385 539.286 58.427 539.211C52.927 539.176 45.6536 538.294 42.264 537.25ZM524.831 537.547C514.148 534.535 508.487 529.804 503.537 519.749L499.094 510.723V401.362V292L502.237 285.048C505.979 276.772 515.912 267.037 523.001 264.697C530.493 262.225 548.401 263.499 555.094 266.981C565.252 272.266 571.654 281.911 574.378 296.033C575.479 301.742 575.798 333.103 575.502 406.667C575.104 505.747 574.996 509.56 572.425 515.81C566.552 530.086 555.329 538.035 539.896 538.849C535.055 539.104 528.276 538.518 524.831 537.547ZM1231.72 537.285C1223.38 534.713 1215.29 527.36 1210.84 518.298L1207.09 510.667L1206.73 403.448C1206.32 283.962 1206.03 288.3 1215.4 276.143C1228.57 259.056 1254.37 257.288 1269.08 272.464C1272.39 275.875 1276.34 280.442 1277.86 282.612L1280.63 286.556L1286.53 281.731C1294.32 275.36 1310.61 266.721 1319.76 264.115C1331.8 260.685 1350.53 259.33 1366.51 260.732C1413.95 264.895 1445.55 293.135 1453.72 338.667C1456.17 352.365 1457.32 426.402 1455.9 480C1455.13 509.413 1454.95 510.966 1451.63 518C1447.64 526.436 1442.72 531.728 1435.11 535.791C1427.39 539.914 1408.09 539.905 1400.43 535.774C1393.18 531.87 1387.17 525.328 1383.5 517.333C1380.44 510.701 1380.42 510.286 1379.66 436.667C1378.85 358.834 1378.7 356.975 1372.49 344.667C1365.3 330.44 1350.8 322.919 1330.95 323.126C1319.4 323.247 1309.04 326.839 1301.42 333.367C1294.91 338.936 1291.4 344.34 1287.45 354.865C1284.6 362.45 1284.5 364.682 1283.79 435.333C1283.07 507.868 1283.06 508.014 1279.9 516C1272.39 534.957 1252.57 543.714 1231.72 537.285ZM505.329 229.317C500.416 218.535 498.272 193.408 501.185 180.767C504.998 164.226 520.834 143.342 535.334 135.732C546.81 129.709 557.135 126.577 558.458 128.718C559.037 129.654 559.934 135.77 560.451 142.309C561.096 150.449 561.968 154.419 563.218 154.899C564.221 155.284 570.856 154.321 577.96 152.758C586.124 150.963 591.344 150.384 592.145 151.185C592.852 151.891 593.176 158.333 592.879 165.743C592.378 178.208 591.989 179.751 586.622 190.582C576.309 211.394 562.135 222.407 537.488 228.755C531.771 230.228 522.576 231.789 517.054 232.225C507.062 233.013 507.007 232.999 505.329 229.317Z" fill="#DE8D6C"/>
<path d="M379.857 705.154C377.212 701.79 377.094 700.055 377.094 664.487C377.094 629.111 377.221 627.206 379.76 624.667C382.988 621.439 386.145 621.284 390.241 624.153C393.089 626.148 393.716 626.124 398.806 623.829C405.25 620.923 413.839 620.938 419.499 623.865C428.228 628.379 435.76 642.119 435.76 653.529C435.76 659.21 432.266 669.42 428.629 674.362C421.819 683.617 408.88 687.416 399.724 682.848C397.319 681.648 394.905 680.667 394.359 680.667C393.814 680.667 393.156 685.82 392.897 692.118C392.482 702.24 392.061 703.865 389.279 706.118C385.066 709.529 383.145 709.333 379.857 705.154ZM413.168 668.627C422.527 663.618 421.496 642.368 411.647 637.275C405.898 634.302 402.578 634.916 397.627 639.867C393.541 643.952 393.094 645.144 393.094 651.933C393.094 659.878 395.538 666.294 399.427 668.56C402.47 670.332 409.914 670.369 413.168 668.627ZM1215.09 707.117C1207.6 704.313 1203.76 700.756 1203.76 696.623C1203.76 690.637 1207.33 689.536 1216.5 692.692C1230.28 697.432 1239.6 695.244 1243.29 686.403C1246.01 679.892 1244.19 678.337 1237.15 681.154C1218.39 688.66 1202.2 675.368 1202.08 652.364C1202.02 641.22 1206.02 632.637 1214.16 626.428C1221.94 620.493 1229.36 619.558 1238.26 623.389C1244.66 626.144 1245.33 626.2 1247.56 624.178C1251.02 621.046 1255.37 621.495 1257.82 625.238C1259.64 628.012 1259.88 632.84 1259.52 658.905C1259.02 694.289 1258.27 697.049 1247.22 703.91C1241.83 707.262 1239.37 707.877 1230.01 708.217C1224.01 708.435 1217.29 707.94 1215.09 707.117ZM1239.86 666.103C1243.31 662.657 1243.76 661.274 1243.76 654.165C1243.76 644.53 1241.84 639.787 1236.9 637.233C1231.23 634.303 1227.89 634.934 1222.96 639.867C1218.87 643.952 1218.43 645.144 1218.43 651.933C1218.43 659.878 1220.87 666.294 1224.76 668.56C1229.38 671.253 1235.75 670.217 1239.86 666.103ZM257.733 682.246C249.369 678.332 246.795 669.371 253.07 666.013C254.868 665.05 257.091 665.402 261.313 667.318C268.794 670.713 270.681 670.654 274.195 666.914C276.985 663.944 277.094 662.758 277.094 635.211C277.094 603.51 277.741 600.667 284.963 600.667C292.696 600.667 293.101 602.451 293.019 636.105C292.934 670.491 292.328 673.679 284.711 679.813C278.173 685.079 266.112 686.166 257.733 682.246ZM323.8 683.183C317.919 680.836 311.801 675.302 308.771 669.589C306.429 665.173 305.802 661.762 305.783 653.333C305.755 640.264 309.191 632.144 317.053 626.695C325.931 620.543 332.9 620.069 344.694 624.817C348.463 626.334 349.284 626.241 351.734 624.024C353.94 622.027 355.25 621.773 358.134 622.783C361.494 623.959 361.844 624.799 362.904 634.217C363.54 639.87 363.54 652.514 362.904 662.702C361.889 678.966 361.455 681.224 359.036 682.824C356.69 684.376 355.669 684.28 351.702 682.139C347.201 679.709 346.978 679.71 342.147 682.159C336.815 684.862 329.087 685.293 323.8 683.183ZM339.006 670.033C349.959 665.869 350.645 643.75 340.013 637.563C331.054 632.348 322.447 638.852 321.423 651.611C320.956 657.421 321.413 659.487 324.015 663.314C326.784 667.387 331.937 671.255 334.674 671.314C335.176 671.324 337.126 670.748 339.006 670.033ZM462.621 683.24C451.229 678.677 444.619 667.726 444.548 653.295C444.487 641.004 448.628 632.517 457.703 626.333C465.681 620.896 476.01 620.289 483.349 624.824L487.919 627.649L490.926 624.824C494.845 621.143 497.874 621.25 500.437 625.161C502.123 627.734 502.517 633.081 502.557 653.916C502.591 671.803 502.128 680.087 501.02 681.422C498.941 683.927 492.535 683.873 490.427 681.333C488.21 678.661 486.013 678.812 480.793 681.995C476.155 684.823 467.972 685.383 462.621 683.24ZM482.85 666.046C491.559 655.697 486.996 638.314 474.939 635.902C466.429 634.2 458.445 646.297 460.577 657.662C462.768 669.345 475.912 674.292 482.85 666.046ZM558.873 682.695C556.287 680.884 556.01 679.18 555.456 661.695C555.124 651.23 554.384 641.594 553.812 640.284C552.676 637.685 546.442 634 543.181 634C542.056 634 539.191 635.738 536.813 637.862L532.491 641.724L531.983 660.862C531.703 671.388 530.865 680.75 530.121 681.667C528 684.278 520.077 683.749 518.549 680.895C517.831 679.553 517.108 666.862 516.941 652.691C516.643 627.302 516.683 626.89 519.681 624.463C523.364 621.481 526.86 621.309 529.094 624C531.224 626.566 532.978 626.519 538.541 623.744C548.611 618.72 563.368 622.513 567.988 631.312C570.069 635.275 570.427 639.233 570.427 658.237C570.427 679.747 570.325 680.587 567.464 682.591C563.783 685.169 562.428 685.185 558.873 682.695ZM598.127 680.989C590.298 676.446 585.78 670.418 583.697 661.736C579.318 643.481 588.866 625.893 605.295 621.952C617.999 618.904 631.165 625.045 637.172 636.821C640.089 642.537 640.619 652.994 638.094 654.992C637.177 655.717 628.397 656.651 618.583 657.066C608.769 657.482 600.129 658.431 599.385 659.176C597.324 661.236 601.862 667.233 607.155 669.445C613.425 672.065 616.028 671.844 626.013 667.85L634.72 664.367L637.564 667.211C640.2 669.847 640.263 670.323 638.415 673.695C637.297 675.733 633.238 678.946 629.184 681C618.988 686.167 607.044 686.163 598.127 680.989ZM624.506 645.873C626.879 642.033 618.255 634 611.76 634C605.297 634 596.749 642.206 599.156 646.1C600.252 647.874 623.397 647.666 624.506 645.873ZM655.975 681.801C648.98 678.338 646.647 674.171 648.916 669.192C650.265 666.231 651.135 665.818 654.796 666.4C657.16 666.775 661.976 668.121 665.498 669.39C672.426 671.885 678.427 670.679 678.427 666.792C678.427 663.971 672.557 659.812 665.059 657.322C657.481 654.805 650.961 649.258 649.707 644.26C648.199 638.252 652.003 629.781 658.156 625.444C662.718 622.229 665.01 621.557 671.384 621.562C683.259 621.573 692.925 627.847 691.263 634.466C690.149 638.907 687.571 639.561 680.579 637.179C672.314 634.363 665.886 635.116 665.339 638.966C664.849 642.411 670.005 646.075 680.054 649.424C691.993 653.402 696.687 664.757 690.552 674.818C684.905 684.079 667.627 687.568 655.975 681.801ZM717.513 681.421C706.31 676.205 699.823 662.925 701.512 648.664C703.495 631.923 715.091 621.335 731.188 621.567C740.116 621.696 745.295 623.824 750.608 629.548C755.165 634.456 757.896 640.029 758.996 646.667C760.534 655.952 759.178 656.64 737.821 657.412C727.597 657.781 718.979 658.337 718.67 658.646C717.219 660.097 720.17 666.207 723.317 668.269C728.504 671.667 739.318 671.311 745.725 667.531C751.607 664.06 756.452 664.544 757.782 668.735C759.08 672.826 755.446 677.254 747.569 681.179C738.189 685.853 727.222 685.942 717.513 681.421ZM743.26 645.381C744.536 642.055 738.778 635.52 733.739 634.575C726.389 633.196 716.85 639.967 718.84 645.152C720.005 648.189 742.103 648.395 743.26 645.381ZM875.277 682.795C868.902 680.421 863.064 674.996 859.357 668C855.228 660.208 855.342 646.204 859.604 637.547C865.112 626.358 877.755 619.603 889.803 621.409C902.374 623.295 911.328 632.639 913.687 646.333C914.418 650.579 914.024 651.857 911.081 654.801C907.912 657.969 906.79 658.24 898.021 657.949C879.159 657.323 873.094 657.834 873.094 660.047C873.094 663.804 877.261 668.515 881.957 670.065C887.472 671.885 894.72 670.799 900.837 667.236C906.727 663.804 910.176 663.989 911.926 667.831C913.938 672.248 911.753 675.777 904.303 680.143C896.83 684.523 883.249 685.763 875.277 682.795ZM897.08 645.35C898.441 643.71 897.885 642.524 893.875 638.514C889.585 634.225 888.464 633.753 884.2 634.445C876.742 635.655 870.511 642.973 873.983 646.444C874.472 646.933 879.498 647.333 885.153 647.333C892.627 647.333 895.883 646.792 897.08 645.35ZM935.547 680.69C926.545 674.727 922.427 666.264 922.427 653.725C922.427 641.175 926.847 631.624 935.493 625.493C942.785 620.322 952.755 619.835 959.815 624.305L964.358 627.182L968.761 624.46C972.883 621.913 973.374 621.877 976.462 623.9L979.76 626.061V652.697C979.76 677.556 979.582 679.511 977.094 682C973.671 685.422 970.687 685.376 966.926 681.842L963.919 679.018L959.349 681.842C952.392 686.142 943.099 685.692 935.547 680.69ZM960.511 665.912C963.981 662.291 964.427 660.885 964.427 653.579C964.427 647.148 963.763 644.402 961.409 641.102C956.021 633.549 945.381 633.973 940.681 641.929C936.233 649.46 938.609 664.977 944.76 668.56C949.597 671.377 956.366 670.239 960.511 665.912ZM996.912 682.121C993.774 679.58 993.769 679.52 994.219 653.806C994.467 639.634 995.232 626.986 995.92 625.701C997.831 622.13 1003.03 621.416 1007.57 624.1C1011.3 626.3 1011.76 626.308 1014.94 624.224C1020.02 620.894 1025.94 621.35 1028.51 625.268C1031.92 630.471 1029.89 633.613 1020.33 637.949C1014.2 640.726 1011.38 642.833 1010.43 645.337C1009.69 647.264 1009.09 655.701 1009.09 664.087C1009.09 677.556 1008.78 679.644 1006.43 682C1003.1 685.332 1000.91 685.359 996.912 682.121ZM1041.75 681.446C1038.44 678.129 1038.43 678.057 1038.43 652.136C1038.43 626.795 1038.5 626.1 1041.39 624.076C1045.17 621.428 1047.61 621.452 1050.61 624.164C1052.81 626.16 1053.42 626.16 1058.41 624.164C1069.57 619.697 1082.43 622.388 1088.33 630.427C1090.81 633.802 1091.14 636.448 1091.54 656.217C1091.98 677.568 1091.9 678.345 1088.98 681.456C1085.29 685.385 1082.29 685.53 1079.04 681.938C1076.89 679.57 1076.56 676.788 1076.5 660.879C1076.42 640.75 1075.02 636.202 1068.38 634.537C1064.12 633.467 1057.45 636.206 1055.44 639.849C1054.57 641.434 1053.65 650.543 1053.35 660.667C1052.81 678.581 1052.2 680.958 1047.53 683.458C1045.62 684.481 1044.34 684.039 1041.75 681.446ZM1108.92 682.131C1105.81 679.605 1105.79 679.496 1106.22 653.846C1106.45 639.684 1107.21 627.032 1107.9 625.731C1108.6 624.429 1110.75 622.967 1112.69 622.481C1115.4 621.801 1116.77 622.292 1118.65 624.613C1120.84 627.31 1121.09 630.427 1121.09 654.072C1121.09 679.886 1121.02 680.565 1118.13 682.591C1114.28 685.286 1112.72 685.208 1108.92 682.131ZM1140.43 683.073C1138.96 682.242 1137.32 680.91 1136.78 680.114C1136.24 679.318 1135.79 667.498 1135.78 653.846C1135.76 630.738 1135.95 628.784 1138.52 625.513C1141.74 621.429 1143.93 621.159 1149.09 624.212C1152.58 626.273 1153.16 626.273 1157.5 624.212C1164.43 620.923 1175.66 621.308 1181.23 625.027C1189.14 630.313 1190.42 634.751 1190.42 656.937C1190.42 677.717 1189.37 682.587 1184.6 683.869C1180.39 684.999 1180 684.902 1177.09 682C1174.7 679.604 1174.43 677.54 1174.41 661.667C1174.39 642.267 1173.35 638.451 1167.29 635.547C1162.17 633.091 1157.51 634.594 1154.39 639.702C1152.13 643.402 1151.77 646.456 1151.77 661.667C1151.77 677.552 1151.49 679.602 1149.09 682C1146.08 685.019 1144.25 685.244 1140.43 683.073ZM808.394 680.629C806.164 678.166 805.924 674.794 805.698 642.695C805.527 618.538 805.926 606.502 806.969 604.399C808.065 602.187 809.848 601.219 813.371 600.925C821.38 600.254 821.818 602.162 821.388 635.816C821.125 656.353 821.469 665.512 822.551 666.816C823.648 668.138 827.438 668.667 835.828 668.667C848.56 668.667 851.76 670.117 851.76 675.889C851.76 682.24 848.397 683.333 828.862 683.333C812.451 683.333 810.622 683.092 808.394 680.629ZM1107.17 611.037C1102.7 604.661 1106.48 595.333 1113.53 595.333C1120.75 595.333 1125.32 606.968 1119.99 611.793C1116.41 615.029 1109.69 614.632 1107.17 611.037ZM991.307 539.27C943.312 531.214 906.736 495.804 892.902 444C888.814 428.692 888.625 426.876 888.528 402C888.422 374.548 889.208 368.621 895.427 350C902.207 329.699 911.918 313.876 927.66 297.479C944.436 280.005 964.274 268.814 987.094 263.951C999.608 261.284 1026.42 260.896 1036.43 263.237C1045.16 265.28 1062.74 273.968 1070.95 280.302C1083.02 289.606 1082.05 289.156 1084.26 286.443C1085.36 285.099 1088.24 281.3 1090.67 278C1096.96 269.469 1107.91 264.165 1118.89 264.338C1133.38 264.567 1143.05 270.229 1148.75 281.838L1152.43 289.333L1152.8 398.667C1153.17 507.923 1153.17 508.005 1150.29 515.711C1144.78 530.429 1129.55 539.357 1113.21 537.444C1099.63 535.855 1089.55 528.909 1086.02 518.705C1082.98 509.915 1081.37 509.967 1070.35 519.213C1058.58 529.099 1045.14 535.993 1032.43 538.661C1022.47 540.75 1001.94 541.055 991.307 539.27ZM1043.82 469.809C1053.91 465.152 1059.97 459.5 1067.06 448.116C1077.95 430.654 1081.97 412.081 1079.68 389.919C1076.81 362.114 1064.38 342.148 1043.76 332.186C1035.73 328.308 1034.06 328 1021.07 328C1007.9 328 1006.49 328.27 998.138 332.381C976.889 342.842 963.765 365.909 961.563 396.667C959.171 430.067 977.64 462.975 1003.58 471.526C1014.79 475.223 1033.85 474.409 1043.82 469.809ZM44.7118 536.183C36.3549 533.832 29.6403 528.25 24.7435 519.582C18.6584 508.812 18.6027 501.104 24.3756 468.667C33.2182 418.98 40.9311 375.152 47.136 339.333C48.851 329.433 51.4791 314.433 52.9763 306C54.4736 297.567 56.8535 284.067 58.2652 276C69.6338 211.037 70.8691 205.032 74.5345 196.916C81.4777 181.543 89.8282 174.219 106.014 169.308C114.752 166.657 132.316 166.781 140.523 169.552C161.4 176.602 170.831 190.73 184.433 235.333C188.57 248.9 199.942 285.2 209.703 316C219.465 346.8 229.334 378.123 231.635 385.606C233.936 393.089 236.357 399.545 237.015 399.952C239.505 401.49 242.535 396.059 246.519 382.918C258.501 343.397 285.912 255.801 296.038 224.667C308.7 185.74 319.021 173.165 342.026 168.639C367.499 163.628 389.091 172.725 400.307 193.194C406.024 203.627 407.844 211.255 414.501 252.667C420.672 291.062 427.947 333.142 435.708 375.333C438.608 391.1 442.249 411.2 443.798 420C445.348 428.8 447.459 440.5 448.49 446C453.059 470.377 457.094 496.857 457.094 502.465C457.094 526.368 434.895 542.142 408.991 536.645C399.363 534.602 394.052 531.286 388.275 523.712C383.425 517.353 379.865 504.109 375.652 476.752C374.233 467.538 372.227 454.9 371.195 448.667C370.162 442.433 367.176 423.833 364.56 407.333C361.943 390.833 358.909 372.233 357.817 366C356.725 359.767 354.58 346.567 353.051 336.667C348.208 305.306 347.309 301.399 344.834 300.929C343.148 300.608 342.223 301.957 341.185 306.25C338.306 318.166 330.388 345.2 319.392 380.667C313.139 400.833 303.42 432.933 297.794 452C278.723 516.627 275.373 524.461 263.76 531.581C255.127 536.875 241.198 539.018 229.007 536.927C218.272 535.087 213.988 533.175 208.529 527.79C199.288 518.676 194.883 507.782 181.115 460C177.174 446.322 160.014 389.454 149.733 356C147.254 347.933 143.021 333.533 140.326 324C133.868 301.15 130.877 295.429 128.555 301.48C128.102 302.661 125.962 316.011 123.8 331.147C121.637 346.283 119.008 363.467 117.957 369.333C116.906 375.2 115.41 384.2 114.633 389.333C106.851 440.728 96.1152 505.672 94.4245 511.576C92.0563 519.845 84.9776 528.704 77.2488 533.07C68.8264 537.828 55.1969 539.132 44.7118 536.183ZM527.406 536.627C520.889 534.991 513.001 530.936 510.249 527.809C506.435 523.474 502.727 514.848 501.147 506.634C500.051 500.939 499.73 469.388 500.021 396C500.398 300.6 500.597 292.956 502.822 288C506.91 278.897 511.993 272.643 518.334 268.916C523.732 265.742 525.796 265.334 536.427 265.343C546.29 265.351 549.427 265.885 554.039 268.342C565.488 274.441 570.82 283.544 573.07 300.832C574.038 308.272 574.389 344.496 574.121 409.333C573.721 506.233 573.706 506.702 570.749 514.593C565.58 528.39 555.23 536.112 540.353 537.271C535.994 537.61 530.168 537.321 527.406 536.627ZM651.761 535.405C641.616 531.836 635.372 524.863 631.819 513.138C629.072 504.072 629.053 502.706 629.405 340L629.76 176L633.634 167.611C639.503 154.902 647.591 149.34 662.468 147.785C678.356 146.125 692.337 153.822 698.601 167.678L701.76 174.667L702.463 266.667C702.849 317.267 703.299 358.817 703.463 359C703.627 359.183 704.939 359.333 706.38 359.333C707.956 359.333 713.93 354.165 721.38 346.356C741.007 325.784 794.394 273.612 798.951 270.55C812.035 261.761 832.667 262.932 843.557 273.083C852.407 281.332 854.937 298.478 849.116 310.757C845.616 318.141 825.046 339.044 796.427 364.3C786.894 372.713 778.596 380.469 777.987 381.537C776.471 384.196 779.085 387.912 795.202 406C811.803 424.632 852.934 473.467 859.773 482.667C865.868 490.864 867.76 496.286 867.76 505.547C867.76 523.613 852.651 537.903 833.477 537.971C815.251 538.035 803.678 529.722 782.478 501.336C777.006 494.009 767.988 482.612 762.438 476.007C756.887 469.403 747.279 457.4 741.086 449.333C712.99 412.736 705.998 404.653 704.086 406.561C703.54 407.106 702.794 430.752 702.427 459.109C701.776 509.444 701.687 510.828 698.672 517.491C692.841 530.373 683.514 536.416 667.915 537.419C661.446 537.834 657.139 537.298 651.761 535.405ZM1235.38 536.623C1224.06 533.782 1215.33 525.884 1210.95 514.538C1208.55 508.317 1208.43 502.726 1208.43 399.333V290.667L1211.52 284.873C1213.22 281.687 1217.22 276.467 1220.42 273.273C1235.34 258.354 1259.99 261.187 1273.21 279.34C1276.41 283.736 1279.85 287.333 1280.85 287.333C1281.85 287.333 1285.17 285.19 1288.22 282.571C1296.74 275.251 1316.05 266.394 1329.02 263.857C1345.76 260.581 1375.21 261.873 1389.76 266.52C1416.55 275.077 1436.97 293.877 1446.71 318.955C1453.69 336.934 1454.41 347.211 1454.42 428.72C1454.43 507.932 1454.1 512.403 1447.59 522.942C1440.97 533.655 1425.3 539.496 1410.29 536.851C1398.55 534.784 1392.3 530.014 1386.43 518.645L1381.76 509.61L1380.98 435.471C1380.15 356.799 1380 355.037 1373.4 342.907C1357.79 314.218 1309.01 313.688 1292.05 342.022C1289.64 346.043 1286.42 353.233 1284.88 358C1282.2 366.35 1282.1 369.008 1282.35 430.667C1282.51 470.727 1282.07 497.968 1281.18 503.492C1277.7 525.162 1267.26 535.823 1248.09 537.299C1243.87 537.623 1238.16 537.319 1235.38 536.623Z" fill="#EE530C"/>
<path d="M379.857 705.153C377.212 701.79 377.094 700.055 377.094 664.487C377.094 629.111 377.221 627.206 379.76 624.667C382.988 621.439 386.145 621.284 390.241 624.153C393.089 626.148 393.716 626.124 398.806 623.829C405.25 620.923 413.839 620.938 419.499 623.865C428.228 628.379 435.76 642.119 435.76 653.529C435.76 659.21 432.266 669.42 428.629 674.362C421.819 683.617 408.879 687.416 399.724 682.848C397.319 681.648 394.904 680.667 394.359 680.667C393.814 680.667 393.156 685.82 392.897 692.118C392.481 702.24 392.061 703.865 389.279 706.118C385.066 709.529 383.145 709.333 379.857 705.153ZM413.168 668.627C422.527 663.618 421.496 642.368 411.647 637.275C405.898 634.302 402.578 634.916 397.627 639.867C393.541 643.952 393.094 645.144 393.094 651.933C393.094 659.878 395.538 666.294 399.427 668.56C402.47 670.332 409.914 670.369 413.168 668.627ZM1215.09 707.116C1207.6 704.313 1203.76 700.756 1203.76 696.623C1203.76 690.637 1207.33 689.536 1216.5 692.692C1230.28 697.432 1239.6 695.244 1243.29 686.403C1246.01 679.892 1244.19 678.337 1237.15 681.154C1218.39 688.66 1202.2 675.368 1202.08 652.364C1202.02 641.22 1206.02 632.637 1214.16 626.428C1221.94 620.493 1229.36 619.558 1238.26 623.389C1244.66 626.144 1245.33 626.2 1247.56 624.178C1251.02 621.046 1255.37 621.495 1257.82 625.238C1259.64 628.012 1259.88 632.84 1259.52 658.905C1259.02 694.289 1258.27 697.049 1247.22 703.91C1241.83 707.262 1239.37 707.877 1230.01 708.217C1224.01 708.435 1217.29 707.94 1215.09 707.116ZM1239.86 666.102C1243.31 662.657 1243.76 661.274 1243.76 654.165C1243.76 644.53 1241.84 639.787 1236.9 637.233C1231.23 634.303 1227.89 634.934 1222.96 639.867C1218.87 643.952 1218.43 645.144 1218.43 651.933C1218.43 659.878 1220.87 666.294 1224.76 668.56C1229.38 671.253 1235.75 670.217 1239.86 666.102ZM257.733 682.246C249.369 678.332 246.795 669.371 253.07 666.013C254.868 665.05 257.091 665.402 261.313 667.318C268.794 670.713 270.681 670.654 274.195 666.914C276.985 663.943 277.094 662.758 277.094 635.211C277.094 603.51 277.741 600.667 284.963 600.667C292.696 600.667 293.101 602.451 293.018 636.105C292.933 670.491 292.328 673.679 284.711 679.813C278.173 685.079 266.112 686.166 257.733 682.246ZM323.8 683.183C317.919 680.836 311.801 675.302 308.771 669.589C306.429 665.173 305.802 661.762 305.783 653.333C305.755 640.264 309.191 632.143 317.053 626.695C325.931 620.543 332.9 620.069 344.694 624.817C348.463 626.334 349.284 626.241 351.734 624.024C353.94 622.027 355.25 621.773 358.134 622.783C361.494 623.959 361.844 624.799 362.904 634.217C363.54 639.869 363.54 652.514 362.904 662.702C361.889 678.966 361.455 681.224 359.036 682.824C356.69 684.376 355.669 684.28 351.702 682.139C347.201 679.709 346.978 679.709 342.147 682.159C336.815 684.862 329.087 685.293 323.8 683.183ZM339.006 670.033C349.959 665.869 350.645 643.75 340.013 637.563C331.054 632.348 322.447 638.852 321.423 651.611C320.956 657.421 321.413 659.487 324.015 663.314C326.784 667.387 331.937 671.255 334.674 671.314C335.176 671.324 337.126 670.748 339.006 670.033ZM462.621 683.24C451.229 678.677 444.619 667.726 444.548 653.295C444.487 641.004 448.627 632.517 457.703 626.333C465.681 620.896 476.01 620.289 483.349 624.824L487.919 627.649L490.926 624.824C494.845 621.143 497.874 621.25 500.437 625.161C502.122 627.734 502.517 633.081 502.557 653.916C502.591 671.803 502.128 680.087 501.02 681.422C498.941 683.927 492.535 683.873 490.427 681.333C488.21 678.661 486.013 678.812 480.793 681.995C476.155 684.823 467.972 685.383 462.621 683.24ZM482.85 666.046C491.558 655.697 486.996 638.314 474.939 635.902C466.429 634.2 458.445 646.297 460.577 657.662C462.768 669.345 475.912 674.292 482.85 666.046ZM558.873 682.695C556.287 680.884 556.01 679.18 555.456 661.695C555.124 651.23 554.384 641.594 553.812 640.284C552.676 637.685 546.442 634 543.181 634C542.056 634 539.191 635.738 536.813 637.862L532.491 641.724L531.982 660.862C531.703 671.388 530.865 680.75 530.121 681.667C528 684.278 520.077 683.749 518.549 680.894C517.831 679.553 517.108 666.862 516.941 652.691C516.643 627.302 516.683 626.89 519.681 624.463C523.364 621.48 526.86 621.308 529.094 624C531.224 626.566 532.978 626.519 538.54 623.744C548.611 618.72 563.368 622.513 567.988 631.312C570.068 635.275 570.427 639.233 570.427 658.237C570.427 679.747 570.325 680.587 567.464 682.591C563.783 685.169 562.428 685.185 558.873 682.695ZM598.127 680.989C590.298 676.446 585.78 670.418 583.697 661.736C579.318 643.481 588.866 625.893 605.295 621.952C617.999 618.904 631.165 625.045 637.172 636.821C640.089 642.537 640.619 652.994 638.094 654.992C637.177 655.717 628.397 656.651 618.583 657.066C608.769 657.482 600.129 658.431 599.385 659.176C597.324 661.236 601.862 667.233 607.155 669.445C613.425 672.064 616.028 671.844 626.013 667.85L634.72 664.367L637.564 667.211C640.2 669.847 640.263 670.323 638.414 673.695C637.297 675.733 633.238 678.946 629.184 681C618.988 686.167 607.043 686.163 598.127 680.989ZM624.506 645.873C626.879 642.033 618.255 634 611.76 634C605.297 634 596.749 642.206 599.155 646.1C600.252 647.874 623.397 647.666 624.506 645.873ZM655.975 681.801C648.98 678.338 646.647 674.171 648.916 669.192C650.265 666.231 651.135 665.818 654.796 666.4C657.16 666.775 661.976 668.121 665.498 669.39C672.426 671.885 678.427 670.679 678.427 666.792C678.427 663.971 672.557 659.812 665.059 657.322C657.481 654.805 650.961 649.257 649.706 644.26C648.199 638.252 652.003 629.781 658.156 625.444C662.718 622.229 665.01 621.557 671.384 621.562C683.259 621.573 692.925 627.847 691.263 634.466C690.149 638.907 687.571 639.561 680.579 637.179C672.314 634.362 665.886 635.116 665.339 638.966C664.849 642.411 670.005 646.075 680.054 649.424C691.993 653.402 696.687 664.757 690.552 674.818C684.905 684.079 667.626 687.568 655.975 681.801ZM717.513 681.421C706.31 676.205 699.823 662.925 701.512 648.664C703.495 631.923 715.091 621.335 731.188 621.567C740.116 621.696 745.295 623.824 750.608 629.548C755.165 634.456 757.896 640.029 758.996 646.667C760.534 655.952 759.178 656.64 737.821 657.412C727.597 657.781 718.979 658.337 718.67 658.646C717.219 660.097 720.17 666.207 723.317 668.269C728.503 671.667 739.318 671.311 745.725 667.531C751.607 664.06 756.452 664.544 757.782 668.735C759.08 672.825 755.446 677.254 747.569 681.179C738.189 685.853 727.222 685.942 717.513 681.421ZM743.26 645.381C744.536 642.055 738.778 635.52 733.739 634.575C726.388 633.196 716.85 639.967 718.84 645.152C720.005 648.188 742.103 648.395 743.26 645.381ZM875.277 682.795C868.902 680.421 863.064 674.996 859.357 668C855.228 660.207 855.342 646.204 859.604 637.547C865.112 626.358 877.755 619.603 889.803 621.409C902.374 623.294 911.328 632.639 913.687 646.333C914.418 650.578 914.024 651.857 911.081 654.8C907.912 657.969 906.79 658.24 898.021 657.949C879.159 657.323 873.094 657.834 873.094 660.047C873.094 663.804 877.261 668.515 881.956 670.065C887.472 671.885 894.72 670.799 900.837 667.235C906.727 663.804 910.176 663.989 911.926 667.831C913.938 672.248 911.753 675.777 904.303 680.143C896.83 684.523 883.249 685.763 875.277 682.795ZM897.08 645.35C898.441 643.71 897.885 642.524 893.875 638.514C889.585 634.225 888.464 633.753 884.2 634.445C876.742 635.655 870.511 642.973 873.983 646.444C874.472 646.933 879.498 647.333 885.153 647.333C892.627 647.333 895.883 646.792 897.08 645.35ZM935.547 680.69C926.545 674.727 922.427 666.264 922.427 653.725C922.427 641.175 926.847 631.624 935.492 625.493C942.785 620.322 952.755 619.835 959.815 624.305L964.358 627.182L968.761 624.46C972.883 621.913 973.374 621.877 976.462 623.9L979.76 626.061V652.697C979.76 677.555 979.582 679.511 977.094 682C973.671 685.422 970.687 685.376 966.926 681.842L963.919 679.018L959.349 681.842C952.392 686.142 943.099 685.692 935.547 680.69ZM960.511 665.912C963.981 662.291 964.427 660.885 964.427 653.579C964.427 647.148 963.763 644.402 961.409 641.102C956.021 633.549 945.38 633.973 940.681 641.929C936.232 649.46 938.609 664.977 944.76 668.56C949.597 671.377 956.366 670.239 960.511 665.912ZM996.912 682.121C993.774 679.58 993.769 679.52 994.219 653.806C994.467 639.634 995.232 626.986 995.92 625.701C997.831 622.13 1003.03 621.416 1007.57 624.1C1011.29 626.3 1011.76 626.308 1014.94 624.224C1020.02 620.894 1025.94 621.35 1028.51 625.268C1031.92 630.471 1029.89 633.613 1020.33 637.949C1014.2 640.726 1011.38 642.833 1010.43 645.337C1009.69 647.264 1009.09 655.701 1009.09 664.087C1009.09 677.555 1008.78 679.644 1006.43 682C1003.1 685.332 1000.91 685.359 996.912 682.121ZM1041.75 681.446C1038.44 678.129 1038.43 678.057 1038.43 652.136C1038.43 626.795 1038.5 626.1 1041.39 624.076C1045.17 621.428 1047.61 621.452 1050.61 624.164C1052.81 626.16 1053.42 626.16 1058.41 624.164C1069.57 619.697 1082.43 622.388 1088.33 630.427C1090.81 633.802 1091.14 636.448 1091.54 656.217C1091.98 677.568 1091.9 678.345 1088.98 681.456C1085.29 685.384 1082.29 685.53 1079.04 681.938C1076.89 679.57 1076.56 676.788 1076.5 660.879C1076.42 640.75 1075.02 636.202 1068.38 634.537C1064.12 633.467 1057.45 636.206 1055.44 639.849C1054.57 641.434 1053.65 650.543 1053.35 660.667C1052.81 678.581 1052.2 680.958 1047.53 683.458C1045.62 684.481 1044.34 684.039 1041.75 681.446ZM1108.92 682.131C1105.81 679.605 1105.79 679.496 1106.22 653.846C1106.45 639.684 1107.21 627.032 1107.9 625.731C1108.6 624.429 1110.75 622.967 1112.69 622.481C1115.4 621.801 1116.77 622.291 1118.65 624.613C1120.84 627.31 1121.09 630.427 1121.09 654.072C1121.09 679.886 1121.02 680.565 1118.13 682.591C1114.28 685.286 1112.72 685.208 1108.92 682.131ZM1140.43 683.073C1138.96 682.242 1137.32 680.91 1136.78 680.114C1136.24 679.318 1135.79 667.497 1135.78 653.846C1135.76 630.738 1135.95 628.784 1138.52 625.513C1141.74 621.429 1143.93 621.159 1149.09 624.212C1152.58 626.273 1153.16 626.273 1157.5 624.212C1164.43 620.923 1175.66 621.308 1181.23 625.026C1189.14 630.313 1190.42 634.751 1190.42 656.937C1190.42 677.717 1189.37 682.587 1184.6 683.869C1180.39 684.999 1180 684.902 1177.09 682C1174.7 679.604 1174.43 677.54 1174.41 661.667C1174.39 642.267 1173.35 638.45 1167.29 635.547C1162.17 633.091 1157.51 634.594 1154.39 639.702C1152.13 643.402 1151.77 646.456 1151.77 661.667C1151.77 677.552 1151.49 679.602 1149.09 682C1146.08 685.019 1144.25 685.244 1140.43 683.073ZM808.393 680.629C806.164 678.166 805.924 674.794 805.698 642.695C805.527 618.538 805.926 606.502 806.969 604.399C808.065 602.187 809.848 601.219 813.371 600.925C821.38 600.254 821.818 602.162 821.388 635.816C821.125 656.353 821.469 665.512 822.551 666.816C823.648 668.138 827.438 668.667 835.828 668.667C848.56 668.667 851.76 670.117 851.76 675.888C851.76 682.24 848.396 683.333 828.862 683.333C812.451 683.333 810.622 683.092 808.393 680.629ZM1107.17 611.037C1102.7 604.661 1106.48 595.333 1113.53 595.333C1120.75 595.333 1125.32 606.968 1119.99 611.793C1116.41 615.029 1109.69 614.632 1107.17 611.037Z" fill="#9E492A"/>
<path d="M1215.18 705.306C1208.66 702.814 1205.09 699.676 1205.09 696.418C1205.09 692.529 1208.09 692.25 1217.77 695.24C1222.69 696.758 1228.56 698 1230.82 698C1236.73 698 1243.52 692.927 1245.1 687.333C1248.08 676.752 1245.63 674.711 1235.59 679.411C1229.51 682.259 1228.44 682.378 1222.69 680.843C1211.69 677.901 1205.55 669.264 1204.2 654.822C1203.25 644.695 1205.11 638.257 1210.88 631.687C1217.84 623.762 1229.43 620.952 1237.09 625.333C1241.62 627.919 1247.78 627.814 1249.75 625.117C1251.86 622.237 1255.43 623.615 1257.07 627.945C1257.77 629.79 1258.21 644.352 1258.05 660.412C1257.76 689.317 1257.73 689.572 1254.29 694.766C1247.54 704.966 1228.05 710.218 1215.18 705.306ZM1240.42 668.103C1245.27 662.953 1247.04 655.657 1245.66 646.444C1244.48 638.609 1239.1 634 1231.13 634C1226.22 634 1224.77 634.687 1221.3 638.638C1213.66 647.34 1213.93 661.616 1221.88 668.59C1228.47 674.375 1234.65 674.213 1240.42 668.103ZM381.36 704.4C379.366 702.406 379.126 673.216 381.094 672C381.827 671.547 382.427 667.085 382.427 662.085C382.427 655.63 383.007 652.512 384.427 651.333C387.432 648.84 386.837 642.832 383.197 638.904C377.552 632.813 377.363 627.377 382.695 624.523C384.653 623.475 385.877 623.602 387.538 625.024C391.53 628.444 394.422 628.675 399.456 625.977C409.355 620.671 420.745 624.274 428.372 635.126C432.134 640.479 432.427 641.731 432.427 652.448C432.427 662.236 431.933 664.863 429.192 669.648C422.469 681.386 409.786 686.141 399.949 680.612C391.881 676.078 390.356 677.983 390.558 692.34C390.673 700.569 390.222 703.977 388.905 704.811C386.339 706.437 383.228 706.268 381.36 704.4ZM414.718 672.809C419.069 671.155 422.997 658.632 421.825 650.154C420.526 640.764 417.259 635.506 411.777 633.983C405.556 632.254 404.296 632.321 399.855 634.618C388.972 640.246 387.155 660.52 396.766 669.077C401.448 673.245 409.287 674.874 414.718 672.809ZM264.427 682.437C255.3 680.429 250.628 675.668 252.377 670.159C253.292 667.275 257.623 666.287 259.071 668.63C259.512 669.344 262.285 670.577 265.233 671.371C268.182 672.165 271.32 673.093 272.207 673.434C273.095 673.774 274.895 672.234 276.209 670.01C278.31 666.453 278.587 662.565 278.515 637.651C278.43 608.071 279.216 603.193 284.226 602.228C285.546 601.974 287.781 602.812 289.193 604.09C291.571 606.242 291.76 608.466 291.76 634.283C291.76 650.467 291.133 664.644 290.264 668.095C287.622 678.589 276.073 685 264.427 682.437ZM465.445 682.036C451.462 678.715 443.101 660.031 447.886 642.798C449.773 636.003 460.66 625.229 466.506 624.371C472.388 623.507 480.463 625.178 483.086 627.802C485.899 630.615 486.679 630.568 490.791 627.333C495.062 623.974 497.947 623.945 499.714 627.246C501.169 629.966 501.646 672.473 500.277 677.574C499.048 682.158 495.753 682.492 491.543 678.458L487.759 674.833L484.093 677.52C480.677 680.024 472.377 683.506 470.561 683.197C470.121 683.122 467.819 682.599 465.445 682.036ZM487.671 661.071C489.802 653.397 489.398 648.501 486.094 641.949C480.162 630.186 465.268 630.291 460.531 642.13C459.374 645.021 458.427 650.105 458.427 653.427C458.427 664.023 463.593 670.684 473.24 672.527C478.626 673.556 479.38 673.345 482.678 669.893C484.65 667.83 486.896 663.86 487.671 661.071ZM608.427 682.753C607.694 682.467 605.429 681.866 603.393 681.416C598.546 680.346 589.677 672.259 587.965 667.347C586.692 663.695 586.782 663.538 589.52 664.633C591.119 665.272 595.127 667.161 598.427 668.83C602.511 670.895 607.556 672.04 614.227 672.417C622.642 672.893 624.565 672.573 627.839 670.152C632.264 666.881 635.538 666.535 636.572 669.229C638.681 674.727 628.684 681.514 616.859 682.613C612.955 682.976 609.16 683.038 608.427 682.753ZM659.094 681.228C652.798 678.965 648.886 674.795 650.063 671.602C651.475 667.771 653.318 667.461 659.704 669.978C665.624 672.311 669.926 673.127 674.665 672.814C677.436 672.632 681.094 669.11 681.094 666.625C681.094 663.372 674.484 658.505 666.758 656.069C657.681 653.208 651.76 647.773 651.76 642.302C651.76 635.673 654.271 630.807 659.456 627.388C669.07 621.046 687.299 623.872 688.885 631.95C689.691 636.052 687.262 636.771 679.94 634.597C666.522 630.612 658.109 633.947 662.427 641.54C663.834 644.013 667.394 646.211 674.427 648.948C689.591 654.85 694.69 662.111 690.354 671.628C687.707 677.437 675.972 683.47 667.769 683.239C665.931 683.188 662.027 682.283 659.094 681.228ZM939.8 681.222C933.186 678.354 930.472 675.568 926.918 668C921.523 656.516 923.343 642.084 931.366 632.71C939.61 623.08 947.976 620.927 957.442 626C963.47 629.231 967.426 629.383 970.606 626.505C975.284 622.272 976.62 624.886 977.55 640.085C978.793 660.405 978.637 674.607 977.127 678.58C975.639 682.494 970.479 683.276 967.76 680C965.519 677.299 962.546 677.497 957.76 680.667C953.033 683.798 946.223 684.008 939.8 681.222ZM961.589 668.628C965.748 663.685 967.04 657.428 965.902 647.745C964.775 638.152 963.423 635.869 957.766 634.002C947.959 630.766 939.58 635.638 937.087 646.027C935.224 653.795 936.008 659.54 939.773 665.713C942.811 670.694 946.293 672.461 953.308 672.583C957.163 672.649 958.905 671.818 961.589 668.628ZM1080.52 681.238C1078.82 679.533 1078.42 675.628 1078.41 660.238C1078.38 638.635 1077.48 635.686 1070 632.84C1065.48 631.119 1064.44 631.151 1060.28 633.137C1053.55 636.347 1052 641.28 1051.51 661.047C1051.17 674.971 1050.69 678.312 1048.76 680.244C1046.53 682.473 1046.29 682.458 1043.76 679.924C1041.4 677.565 1041 674.785 1040.23 655.19C1039.75 643.048 1039.77 631.487 1040.27 629.499C1041.42 624.895 1046.22 622.861 1049.37 625.64C1050.98 627.059 1052.95 627.376 1056.04 626.715C1065.96 624.597 1075.38 624.471 1079.98 626.395C1087.22 629.42 1088.66 634.149 1089.5 657.764C1090.18 676.71 1090.05 678.381 1087.66 680.764C1084.55 683.881 1083.25 683.967 1080.52 681.238ZM321.515 679.409C310.799 674.544 304.838 659.411 307.875 644.781C309.02 639.267 310.701 636.144 314.942 631.655C322.363 623.801 329.841 622.167 340.776 626.01C347.629 628.419 348.534 628.467 351.425 626.573C353.163 625.434 355.899 624.689 357.506 624.918C360.384 625.328 360.432 625.719 360.788 651.436C361.127 675.97 360.991 677.68 358.519 679.917C355.99 682.206 355.756 682.19 352.335 679.5C349.372 677.169 349.138 676.566 350.929 675.879C352.111 675.425 352.705 674.45 352.249 673.712C351.792 672.973 352.249 671.853 353.256 671.222C354.727 670.304 354.522 669.672 352.227 668.056C349.722 666.291 349.302 664.507 348.894 653.908C348.441 642.142 348.297 641.663 344.073 637.89C341.01 635.154 338.326 634 335.026 634C325.516 634 319.756 641.408 319.765 653.624C319.775 662.781 326.089 672.516 332.094 672.625C333.377 672.648 334.427 673.136 334.427 673.708C334.427 674.281 336.377 675.504 338.76 676.426C342.92 678.036 342.99 678.182 340.506 680.052C336.937 682.739 328.197 682.443 321.515 679.409ZM521.094 680.697C519.455 679.663 519.019 674.835 518.679 653.953C518.382 635.744 518.714 627.928 519.842 626.569C521.901 624.088 526.305 624.143 529.113 626.685C531.112 628.494 532.004 628.409 537.747 625.869C545.664 622.367 556.672 622.836 562.127 626.909C567.624 631.013 569.614 639.528 567.099 648.181C564.805 656.07 564.443 666.894 566.449 667.563C568.291 668.177 569.036 675.31 567.645 679C566.206 682.813 560.431 683.078 558.474 679.421C557.715 678.003 557.094 669.978 557.094 661.588C557.094 653.198 556.706 644.397 556.233 642.029C554.566 633.693 541.678 629.608 536.159 635.667C531.071 641.253 530.427 644.173 530.427 661.646C530.427 679.073 529.663 682.024 525.16 681.98C524.024 681.969 522.194 681.392 521.094 680.697ZM717.553 679.256C710.525 675.777 705.286 667.93 703.498 658.203C701.265 646.061 705.417 635.291 715.21 627.821C719.729 624.375 721.232 624 730.559 624C742.442 624 745.846 625.765 752.273 635.257C756.723 641.83 758.579 652.259 755.624 654.085C754.607 654.713 745.79 655.235 736.031 655.245C726.271 655.255 717.718 655.615 717.023 656.044C714.309 657.721 715.791 664.197 719.759 667.999C725.271 673.28 736.632 674.241 745.112 670.144C751.939 666.845 754.243 666.637 755.238 669.23C758.959 678.927 731.596 686.207 717.553 679.256ZM746.186 645.626C746.506 642.843 745.459 640.765 741.986 637.293C738.02 633.326 736.467 632.667 731.094 632.667C725.745 632.667 724.163 633.331 720.294 637.2C715.314 642.18 714.489 646.447 718.094 648.585C719.381 649.349 726.103 649.827 733.094 649.652L745.76 649.333L746.186 645.626ZM812.23 680.676C810.655 680.041 809.027 678.971 808.612 678.3C808.197 677.629 807.785 660.704 807.695 640.689C807.522 601.903 807.495 602.066 814.047 602.021C819.484 601.983 820.071 605.739 819.567 637.301C819.189 660.98 819.461 667.363 820.924 669.127C822.273 670.754 824.965 671.334 831.178 671.334C835.812 671.334 839.983 671.949 840.448 672.702C840.913 673.454 842.899 673.904 844.86 673.702C847.858 673.392 848.427 673.856 848.427 676.607C848.427 678.962 847.492 680.14 845.094 680.807C840.298 682.141 815.618 682.043 812.23 680.676ZM875.301 680.055C864.472 676.195 858.409 666.305 858.456 652.579C858.518 634.398 869.104 623.334 886.437 623.334C899.525 623.334 909.988 632.53 911.427 645.299C912.494 654.765 911.676 655.156 890.826 655.156C879.887 655.156 872.181 655.713 871.328 656.566C869.463 658.431 869.704 671.144 871.641 673.081C872.712 674.152 873.839 674.192 875.46 673.218C876.985 672.301 879.783 672.258 883.76 673.089C888.669 674.114 889.275 674.536 887.094 675.411C884.739 676.354 884.844 676.491 887.985 676.573C889.941 676.625 892.509 677.038 893.69 677.491C895.621 678.232 895.598 678.499 893.466 680.116C890.424 682.424 881.864 682.396 875.301 680.055ZM896.668 649.184C900.884 648.053 901.497 644.967 898.476 640.079C893.226 631.585 882.759 630.116 875.14 636.805C869.961 641.353 868.951 646.341 872.76 648.56C875.277 650.026 891.91 650.46 896.668 649.184ZM998.072 679.667C996.324 677.726 995.977 673.407 996.011 654C996.033 641.167 996.326 629.616 996.663 628.332C997.709 624.337 1002.14 622.838 1005.8 625.239C1009.8 627.856 1013.17 627.9 1016.51 625.376C1021.64 621.491 1027.76 623.631 1027.76 629.313C1027.76 631.401 1025.75 633.045 1019.69 635.926C1008.2 641.379 1007.76 642.333 1007.76 661.535C1007.76 674.553 1007.34 678.229 1005.67 679.905C1002.94 682.627 1000.67 682.556 998.072 679.667ZM1109.36 680.4C1107.67 678.706 1107.02 634.893 1108.6 628.986C1109.53 625.534 1115.18 623.548 1117.49 625.861C1119.72 628.097 1120.53 677.472 1118.37 680.072C1116.42 682.413 1111.55 682.591 1109.36 680.4ZM1139.92 680.791C1138.44 679.854 1138.12 674.537 1138.31 653.881C1138.45 637.745 1139.08 627.491 1139.98 626.403C1141.94 624.037 1147.3 624.208 1148.24 626.667C1149.3 629.417 1152.54 629.174 1159.45 625.828C1163.98 623.635 1166.78 623.163 1171.77 623.753C1179.76 624.699 1183.19 626.765 1185.76 632.19C1188.51 637.984 1188.5 655.727 1185.74 658.014C1184.5 659.045 1184.18 660.26 1184.9 661.177C1185.54 661.997 1186.45 665.68 1186.92 669.362C1187.93 677.296 1185.33 682.412 1180.63 681.743C1177.92 681.356 1177.71 680.4 1176.86 664.08C1176.37 654.59 1175.59 644.867 1175.14 642.471C1173.68 634.678 1164.13 630.234 1157.02 634.04C1151.72 636.879 1150.18 642.692 1150.28 659.478C1150.4 677.436 1149.28 682.01 1144.79 681.98C1143.12 681.969 1140.93 681.434 1139.92 680.791ZM899.417 676.554C898.127 675.804 896.519 675.532 895.842 675.95C895.165 676.368 894.277 676.169 893.867 675.507C892.781 673.749 897.89 672.747 903.388 673.64C907.765 674.35 907.955 674.561 905.703 676.207C902.812 678.321 902.482 678.339 899.417 676.554ZM346.427 669.334C346.427 668.111 347.072 667.327 347.86 667.589C348.649 667.852 349.294 668.637 349.294 669.334C349.294 670.03 348.649 670.815 347.86 671.078C347.072 671.341 346.427 670.556 346.427 669.334ZM906.177 667.756C907.14 667.371 908.289 667.418 908.733 667.862C909.176 668.305 908.388 668.62 906.983 668.562C905.429 668.498 905.113 668.182 906.177 667.756ZM593.925 658.615C592.638 655.263 593.018 654.397 594.59 657.1C595.368 658.439 595.724 659.815 595.381 660.158C595.037 660.501 594.382 659.807 593.925 658.615ZM585.199 655.889C585.263 654.336 585.579 654.02 586.005 655.084C586.39 656.046 586.342 657.196 585.899 657.639C585.456 658.082 585.141 657.295 585.199 655.889ZM601.132 652.738C600.091 650.793 600.237 650.306 601.792 650.534C605.135 651.025 606.899 653.534 604.537 654.44C603.287 654.92 601.939 654.246 601.132 652.738ZM592.484 652.759C592.062 652.076 592.327 651.141 593.072 650.68C593.817 650.22 594.427 650.778 594.427 651.922C594.427 654.264 593.627 654.609 592.484 652.759ZM617.432 652.334C617.74 651.417 619.74 650.667 621.876 650.667C630.315 650.667 631.601 644.953 624.674 638.24C615.897 629.733 604.482 629.942 598.54 638.719C596.768 641.335 594.093 644.132 592.595 644.934C591.097 645.736 588.754 647.654 587.389 649.196C584.931 651.974 584.915 651.945 585.726 646.062C588.587 625.319 613.055 616.043 629.161 629.595C637.868 636.921 641.64 654 634.551 654C633.31 654 631.574 653.28 630.694 652.4C629.449 651.156 628.738 651.156 627.494 652.4C625.305 654.589 616.693 654.532 617.432 652.334ZM1115.76 610.111C1115.76 609.317 1113.92 608.667 1111.68 608.667C1107.8 608.667 1107.62 608.429 1108.01 603.811C1108.58 597.152 1112.89 595.476 1118.05 599.911C1121.23 602.646 1121.54 603.538 1120.4 606.753C1119.1 610.438 1115.76 612.854 1115.76 610.111Z" fill="#9A3A1C"/>
</svg>
